<svg width="60" height="60" viewBox="0 0 60 60" fill="none" xmlns="http://www.w3.org/2000/svg">
<path d="M30 29.9986C30.6468 29.9986 31.1719 29.4736 31.1719 28.8268C31.1719 28.1799 30.6468 27.6549 30 27.6549C29.3532 27.6549 28.8281 28.1799 28.8281 28.8268C28.8281 29.4736 29.3532 29.9986 30 29.9986Z" fill="white" fill-opacity="0.77"/>
<path d="M55.3124 21.4048H48.3823L37.7219 6.73852C36.7643 5.09744 34.6549 4.51334 32.9795 5.44122C31.2812 6.38467 30.6706 8.5238 31.6145 10.2226C31.6415 10.2706 31.6712 10.3169 31.7046 10.3608L40.0661 21.4048H19.9337L28.2952 10.3608C28.3282 10.3169 28.3584 10.2706 28.3854 10.2226C29.327 8.52792 28.7232 6.38696 27.019 5.44031C25.3472 4.51425 23.2379 5.0979 22.2784 6.73761L11.6176 21.4048H4.68749C2.10296 21.4048 0 23.5078 0 26.0923C0 28.1307 1.32293 29.9055 3.18649 30.5335C3.38516 30.6873 3.63326 30.7798 3.90334 30.7798C3.95736 30.7798 4.00817 30.783 4.06127 30.7903C4.56573 30.8581 4.96535 31.2408 5.0569 31.7416L9.04356 53.6749C9.34797 55.3471 10.8027 56.5611 12.5029 56.5611H47.497C49.1971 56.5611 50.6519 55.3471 50.9563 53.6744L54.943 31.742C55.0345 31.2408 55.4346 30.8581 55.9409 30.7903C55.9922 30.783 56.043 30.7798 56.0965 30.7798C56.3684 30.7798 56.6184 30.6864 56.8171 30.5308C58.682 29.8986 59.9999 28.1271 59.9999 26.0923C59.9999 23.5078 57.8969 21.4048 55.3124 21.4048ZM33.6314 9.02277C33.3636 8.46841 33.5714 7.79321 34.1161 7.49109C34.6833 7.1766 35.3983 7.37939 35.711 7.9429C35.7339 7.98501 35.76 8.0253 35.7879 8.06375L45.4847 21.4048H43.0054L33.6314 9.02277ZM24.212 8.06421C24.2399 8.02576 24.2651 7.98593 24.2884 7.94473C24.602 7.38077 25.3175 7.17752 25.8824 7.49017C26.428 7.79321 26.6368 8.4675 26.3685 9.02277L16.9944 21.4048H14.5152L24.212 8.06421ZM55.3124 28.4361H34.6874C34.0401 28.4361 33.5156 28.9607 33.5156 29.6079C33.5156 30.2552 34.0401 30.7679 34.6874 30.7679H52.781C52.7196 30.9428 52.6711 31.1241 52.6372 31.3108L48.6501 53.2551C48.5489 53.8126 48.0637 54.2173 47.497 54.2173H12.5029C11.9357 54.2173 11.4509 53.8126 11.3493 53.2556L7.36266 31.3223C7.32878 31.1355 7.28026 30.9542 7.21892 30.7798H25.3124C25.9597 30.7798 26.4843 30.2552 26.4843 29.6079C26.4843 28.9607 25.9597 28.4361 25.3124 28.4361H4.68749C3.38424 28.4361 2.34374 27.3741 2.34374 26.0923C2.34374 24.8 3.39523 23.7486 4.68749 23.7486H55.3124C56.6047 23.7486 57.6561 24.8 57.6561 26.0923C57.6561 27.3937 56.5914 28.4361 55.3124 28.4361Z" fill="white" fill-opacity="0.77"/>
<path d="M29.9999 33.5143C28.0612 33.5143 26.4843 35.0913 26.4843 37.0299V46.4049C26.4843 48.3435 28.0612 49.9205 29.9999 49.9205C31.9385 49.9205 33.5155 48.3435 33.5155 46.4049V37.0299C33.5155 35.0876 31.9422 33.5143 29.9999 33.5143ZM31.1717 46.4049C31.1717 47.0513 30.6462 47.5768 29.9999 47.5768C29.3535 47.5768 28.828 47.0513 28.828 46.4049V37.0299C28.828 36.3835 29.3535 35.858 29.9999 35.858C30.6467 35.858 31.1717 36.3831 31.1717 37.0299V46.4049Z" fill="white" fill-opacity="0.77"/>
<path d="M41.7186 49.9205C43.6572 49.9205 45.2342 48.3435 45.2342 46.4049V37.0299C45.2342 35.0876 43.6609 33.5143 41.7186 33.5143C39.78 33.5143 38.203 35.0913 38.203 37.0299V46.4049C38.203 48.3435 39.78 49.9205 41.7186 49.9205ZM40.5467 37.0299C40.5467 36.3835 41.0723 35.858 41.7186 35.858C42.3654 35.858 42.8905 36.3831 42.8905 37.0299V46.4049C42.8905 47.0513 42.365 47.5768 41.7186 47.5768C41.0723 47.5768 40.5467 47.0513 40.5467 46.4049V37.0299Z" fill="white" fill-opacity="0.77"/>
<path d="M18.2812 33.5143C16.3426 33.5143 14.7656 35.0913 14.7656 37.0299V46.4049C14.7656 48.3435 16.3426 49.9205 18.2812 49.9205C20.2199 49.9205 21.7969 48.3435 21.7969 46.4049V37.0299C21.7969 35.0876 20.2235 33.5143 18.2812 33.5143ZM19.4531 46.4049C19.4531 47.0513 18.9276 47.5768 18.2812 47.5768C17.6349 47.5768 17.1094 47.0513 17.1094 46.4049V37.0299C17.1094 36.3835 17.6349 35.858 18.2812 35.858C18.9281 35.858 19.4531 36.3826 19.4531 37.0299V46.4049Z" fill="white" fill-opacity="0.77"/>
</svg>
