<svg width="75" height="75" viewBox="0 0 75 75" fill="none" xmlns="http://www.w3.org/2000/svg">
<g clip-path="url(#clip0)">
<path d="M75 25.5425C74.9983 24.4039 74.6634 23.2491 73.9229 22.2973L67.9804 14.6936C66.985 13.4297 65.4705 12.7862 63.957 12.7837C63.0563 12.7837 62.1391 13.0146 61.3288 13.5199L55.5345 17.1249C54.9251 17.5135 53.8803 17.7803 52.8712 17.7734C52.0872 17.7768 51.3296 17.6199 50.8294 17.3728L45.1552 14.6243C44.2399 14.1836 43.2197 14.003 42.1937 14.0013C40.7202 14.0082 39.2279 14.3703 38.0288 15.2013L37.3667 15.6658C36.8375 15.4017 36.0287 14.9993 35.1126 14.5434C34.014 14.0048 32.7221 13.7875 31.4173 13.7833C30.2385 13.7867 29.06 13.9683 28.0253 14.4054L24.1604 16.0545C23.5314 16.3273 22.5309 16.5054 21.5372 16.501C20.5434 16.5053 19.5447 16.3271 18.9157 16.0545L15.0473 14.4045C14.3417 14.1037 13.5875 13.975 12.84 13.9742C11.9792 13.975 11.1236 14.1447 10.3283 14.4668C9.53409 14.7907 8.79683 15.2688 8.20972 15.9249L1.16675 23.8125C0.386138 24.6842 -0.00160633 25.782 5.00127e-06 26.8626C-0.00160633 28.1512 0.549761 29.4439 1.61324 30.35L8.18306 35.955L5.06646 39.2063C4.20733 40.1029 3.7796 41.2654 3.7796 42.4148C3.77799 43.6378 4.26373 44.8727 5.22584 45.7819L5.85806 46.3827C6.45382 46.9478 7.16969 47.3073 7.91881 47.499C7.54307 48.1901 7.3377 48.9479 7.33931 49.7071C7.3377 50.931 7.82345 52.165 8.7838 53.0752L8.78219 53.0744L9.41632 53.6777C10.319 54.5334 11.4891 54.9595 12.6419 54.9587C13.2615 54.9596 13.8819 54.8351 14.4649 54.5914C14.6695 55.4215 15.0921 56.2106 15.7569 56.8412L16.391 57.4446C17.2937 58.3002 18.4619 58.7263 19.6166 58.7256C20.5193 58.7265 21.426 58.4605 22.2066 57.9441C22.435 58.6787 22.8262 59.375 23.4218 59.9408L24.056 60.5442C24.9567 61.3998 26.1268 61.8259 27.2799 61.8252C28.5079 61.8261 29.7481 61.3437 30.664 60.3875L33.4185 57.5111L37.1608 60.9746C38.0565 61.8054 39.2063 62.2188 40.3412 62.2163C41.5881 62.2189 42.846 61.7194 43.7638 60.7368L44.3612 60.0968C44.8768 59.543 45.2134 58.8875 45.4087 58.2032L46.8583 59.5412C47.7557 60.3687 48.9038 60.7803 50.0372 60.7794C51.2857 60.7803 52.5471 60.2808 53.4658 59.2975L54.0598 58.6582C54.7458 57.9253 55.1319 57.0176 55.2511 56.0905C55.6338 56.1885 56.0215 56.255 56.4126 56.255C57.6611 56.255 58.919 55.7564 59.8386 54.7739L60.4344 54.1346C61.267 53.2422 61.6812 52.0978 61.6795 50.9694C61.6795 50.6191 61.6292 50.2707 61.5516 49.9263C62.5871 49.789 63.5911 49.3272 64.3546 48.5073L64.9519 47.8673C65.7846 46.9749 66.1971 45.8304 66.1971 44.7012C66.1987 43.4587 65.6977 42.2049 64.7091 41.2915L63.5918 40.2595L73.6755 29.1105C74.5808 28.1068 74.9984 26.8148 75 25.5425ZM9.08409 45.1267C8.54986 45.1251 8.02735 44.9341 7.6191 44.5472L6.98585 43.9465C6.54771 43.5322 6.33136 42.981 6.3296 42.415C6.33136 41.8841 6.52135 41.3659 6.91261 40.9576L13.2958 34.2965C13.7117 33.8626 14.2666 33.6454 14.8358 33.6447C15.3684 33.6456 15.8892 33.8373 16.3008 34.2251L16.9314 34.8267C16.9314 34.8267 17.5843 35.7921 17.5859 36.3589C17.5843 36.7833 17.4564 37.1966 17.2084 37.5546C17.1872 37.5759 10.319 44.7338 10.319 44.7338C9.95421 44.9919 9.52296 45.1248 9.08409 45.1267ZM14.182 51.7708C13.7671 52.2029 13.213 52.4193 12.6438 52.421C12.1096 52.4202 11.5887 52.2284 11.1788 51.8416L10.5447 51.2389L10.5431 51.238C10.1085 50.8255 9.89019 50.2726 9.89019 49.7065C9.89019 49.1757 10.0819 48.6574 10.4713 48.2492C10.4713 48.2492 18.98 39.392 19.0516 39.3066C19.4583 38.9155 19.9822 38.7135 20.5234 38.7126C21.0576 38.7135 21.5785 38.9043 21.9883 39.2921L22.6225 39.8955C23.0587 40.308 23.2754 40.8602 23.277 41.427C23.2752 41.9578 23.0836 42.4768 22.694 42.8851L14.182 51.7708ZM21.1557 55.5366C20.7416 55.9698 20.1878 56.1864 19.6184 56.188C19.0841 56.1872 18.5632 55.9954 18.1534 55.6077L17.5175 55.005C17.0813 54.5917 16.863 54.0396 16.863 53.4735C16.863 52.9998 17.0241 52.5403 17.3325 52.1577L23.2581 45.973C23.6578 45.6125 24.1588 45.4225 24.6779 45.4225C25.2122 45.4233 25.7331 45.6142 26.1429 46.002L26.7788 46.6053C27.2134 47.0178 27.4317 47.5701 27.4333 48.1359C27.4316 48.6678 27.2382 49.1868 26.8503 49.594L21.1557 55.5366ZM32.4148 54.8839L28.8192 58.6365C28.4049 59.0694 27.8502 59.286 27.281 59.2876C26.7467 59.2868 26.2258 59.095 25.816 58.7073L25.1819 58.1046C24.7472 57.6921 24.529 57.1392 24.5274 56.5731C24.529 56.0413 24.7207 55.5223 25.1104 55.1158L28.7044 51.3633C29.1202 50.9304 29.6751 50.713 30.2444 50.7122C30.777 50.713 31.2995 50.9039 31.7093 51.2925L32.3452 51.8952C32.7799 52.3077 32.9964 52.8599 32.9981 53.4258C32.9961 53.9575 32.8043 54.4765 32.4148 54.8839ZM63.6509 44.7045C63.6501 45.2257 63.4634 45.7362 63.085 46.1418L62.4892 46.7811C62.0734 47.226 61.5091 47.451 60.9314 47.4519C60.4073 47.451 59.8941 47.2668 59.4869 46.8904L49.4476 37.6061L47.7116 39.4648L58.4574 49.4197C58.9049 49.834 59.1298 50.3965 59.1331 50.9709C59.1298 51.4941 58.9448 52.0037 58.5673 52.4095L57.9733 53.0487C57.5574 53.4936 56.9931 53.7177 56.4154 53.7195C55.8913 53.7179 55.3765 53.5329 54.9725 53.1587L44.9306 43.8746L43.1964 45.7333L52.1082 53.9745C52.5377 54.3861 52.7577 54.9341 52.7577 55.4965C52.7577 56.0181 52.5727 56.5285 52.1952 56.9334L51.5994 57.5726C51.1852 58.0175 50.6193 58.2425 50.04 58.2441C49.5141 58.2425 49.0011 58.0575 48.5955 57.6834L39.7015 49.472H39.6999L39.6983 49.4704L37.9675 51.3325L37.9692 51.3341L38.0025 51.3656L42.4571 55.4769C42.8517 55.8825 43.0562 56.4023 43.0578 56.9401C43.0562 57.4591 42.8728 57.9669 42.4953 58.372L41.8995 59.012C41.4837 59.4568 40.9212 59.6801 40.345 59.6818C39.8209 59.6802 39.3078 59.4961 38.9022 59.1204L35.0237 55.529C35.3612 54.8669 35.5496 54.1484 35.5496 53.4274C35.5512 52.2044 35.0654 50.9713 34.1051 50.0603L33.4692 49.4569C32.5685 48.6021 31.4 48.1752 30.247 48.1768C30.1575 48.1768 30.0673 48.1973 29.9795 48.2024C29.9795 48.1812 29.9845 48.1589 29.9845 48.1377C29.9861 46.9147 28.54 44.7689 28.54 44.7689L27.9059 44.1672C27.2318 43.528 26.4092 43.1292 25.5538 42.969C25.7301 42.4696 25.8299 41.9498 25.8299 41.429C25.8299 40.206 25.3458 38.9719 24.3854 38.0619L23.7513 37.4585C22.8486 36.6029 21.6804 36.1759 20.5273 36.1768C20.3927 36.1768 20.2598 36.2041 20.1259 36.2161C20.0893 35.0417 19.6163 33.8682 18.696 32.9939V32.993L18.0636 32.3922C17.1609 31.5357 15.9927 31.1087 14.8396 31.1096C13.6097 31.1087 12.3715 31.5911 11.4555 32.5474L9.94879 34.1197L3.27408 28.4268C2.79434 28.016 2.55484 27.4484 2.55308 26.8655C2.55469 26.3771 2.72095 25.899 3.07545 25.5021L10.1183 17.6146C10.3978 17.301 10.8111 17.0172 11.2953 16.8202C11.7794 16.6233 12.329 16.5152 12.8429 16.516C13.2904 16.516 13.7104 16.597 14.0463 16.7418L17.9129 18.3917C19.0028 18.8511 20.2683 19.0395 21.5401 19.0436C22.8133 19.0393 24.0772 18.8509 25.1673 18.3917L29.0322 16.7426C29.6279 16.4827 30.5269 16.3216 31.4209 16.325C32.4095 16.3189 33.3998 16.5236 33.9741 16.8167C34.3389 16.9982 34.6849 17.1705 35.0061 17.3314L31.0645 20.1022C29.798 20.9928 29.1154 22.4092 29.1172 23.8384C29.1155 24.7844 29.4154 25.7474 30.0257 26.5646L30.024 26.5629L30.5446 27.2625C31.5333 28.5768 33.0749 29.2525 34.6157 29.2559C35.4859 29.2559 36.3722 29.036 37.1622 28.5621L39.5195 27.1465C40.0002 26.8525 40.7262 26.6667 41.4769 26.6701C42.3591 26.665 43.2479 26.9259 43.7823 27.3186L50.3036 31.9939C51.755 33.0337 54.119 34.9623 55.429 36.1759L62.9772 43.1549C63.4241 43.5693 63.6491 44.1293 63.6509 44.7045ZM71.7829 27.414L61.7274 38.533L57.1619 34.3128C55.7319 32.9927 53.3738 31.0676 51.7921 29.9314L45.2725 25.2561C44.1671 24.473 42.8137 24.1345 41.4758 24.1295C40.3371 24.1329 39.19 24.381 38.1998 24.9706L35.8443 26.3862C35.4829 26.6035 35.057 26.7144 34.6144 26.7152C33.8234 26.7179 33.0318 26.3487 32.5904 25.7479L32.0715 25.0491L32.0697 25.0474C31.7936 24.675 31.665 24.2574 31.6631 23.8346C31.6664 23.1954 31.9613 22.575 32.5324 22.1719L39.502 17.2749C40.1047 16.8387 41.1768 16.5327 42.1951 16.5403C42.9025 16.5369 43.5782 16.6792 44.041 16.9077L49.7151 19.6562C50.6824 20.1207 51.7742 20.3106 52.8725 20.3133C54.2838 20.3064 55.7104 19.9997 56.8858 19.2778L62.6819 15.6721C63.0517 15.4412 63.4957 15.3218 63.9586 15.3218C64.741 15.3202 65.525 15.6747 65.969 16.2533L71.9116 23.857C72.2542 24.2925 72.4527 24.9069 72.4527 25.5437C72.4537 26.2557 72.2022 26.9563 71.7829 27.414Z" fill="#424651"/>
</g>
<defs>
<clipPath id="clip0">
<rect width="75" height="75" fill="white"/>
</clipPath>
</defs>
</svg>
