<svg width="94" height="86" viewBox="0 0 94 86" fill="none" xmlns="http://www.w3.org/2000/svg">
<path d="M2.79236 48.7934L4.96873 46.618C5.8545 56.8931 10.473 66.4879 17.9516 73.5894C25.4303 80.6909 35.251 84.8073 45.5581 85.1608C55.8652 85.5142 65.9448 82.0803 73.8923 75.5077C81.8398 68.9352 87.1048 59.6794 88.6924 49.4891C88.7556 49.0796 88.6536 48.6617 88.4087 48.3273C88.1638 47.993 87.7962 47.7697 87.3866 47.7064C86.9771 47.6432 86.5592 47.7452 86.2248 47.9901C85.8905 48.235 85.6671 48.6026 85.6039 49.0122C84.143 58.3953 79.3143 66.9251 72.0208 73.0065C64.7274 79.0879 55.4685 82.3045 45.9756 82.0548C36.4826 81.8051 27.4057 78.1063 20.442 71.6499C13.4783 65.1935 9.10469 56.4217 8.13904 46.9747L9.9576 48.7934C10.2506 49.0865 10.6481 49.2511 11.0625 49.2511C11.4769 49.2511 11.8743 49.0865 12.1674 48.7934C12.4604 48.5004 12.625 48.1029 12.625 47.6885C12.625 47.2741 12.4604 46.8767 12.1674 46.5836L7.47986 41.8962C7.33477 41.7511 7.16252 41.636 6.97294 41.5574C6.78336 41.4789 6.58018 41.4385 6.37498 41.4385C6.16978 41.4385 5.9666 41.4789 5.77702 41.5574C5.58744 41.636 5.41519 41.7511 5.2701 41.8962L0.582597 46.5836C0.437501 46.7287 0.322405 46.901 0.24388 47.0906C0.165355 47.2801 0.124939 47.4833 0.124939 47.6885C0.124939 47.8937 0.165355 48.0969 0.24388 48.2865C0.322405 48.4761 0.437501 48.6483 0.582597 48.7934C0.727692 48.9385 0.899945 49.0536 1.08952 49.1321C1.2791 49.2107 1.48228 49.2511 1.68748 49.2511C1.89268 49.2511 2.09586 49.2107 2.28544 49.1321C2.47501 49.0536 2.64727 48.9385 2.79236 48.7934V48.7934Z" fill="#424651"/>
<path d="M91.2076 37.208L89.0318 39.3838C88.146 29.1088 83.5275 19.514 76.049 12.4125C68.5704 5.31105 58.7497 1.19467 48.4427 0.841212C38.1356 0.487756 28.0561 3.92171 20.1086 10.4942C12.1611 17.0667 6.89616 26.3225 5.3086 36.5127C5.24535 36.9222 5.34739 37.3402 5.59226 37.6745C5.83714 38.0088 6.2048 38.2322 6.61436 38.2954C7.02391 38.3586 7.44182 38.2566 7.77615 38.0117C8.11047 37.7669 8.33382 37.3992 8.39707 36.9896C9.85917 27.6072 14.6884 19.0785 21.9819 12.998C29.2754 6.91757 38.5339 3.70165 48.0262 3.95154C57.5186 4.20142 66.595 7.9 73.5585 14.3558C80.522 20.8116 84.8958 29.5826 85.8623 39.0289L84.0424 37.2088C83.8973 37.0637 83.725 36.9486 83.5354 36.8701C83.3459 36.7915 83.1427 36.7511 82.9375 36.7511C82.7323 36.7511 82.5291 36.7915 82.3395 36.8701C82.1499 36.9486 81.9777 37.0637 81.8326 37.2088C81.6875 37.3539 81.5724 37.5261 81.4939 37.7157C81.4153 37.9053 81.3749 38.1085 81.3749 38.3137C81.3749 38.5189 81.4153 38.722 81.4939 38.9116C81.5724 39.1012 81.6875 39.2734 81.8326 39.4185L86.5201 44.106C86.6652 44.2511 86.8374 44.3662 87.027 44.4448C87.2166 44.5233 87.4198 44.5637 87.625 44.5637C87.8302 44.5637 88.0334 44.5233 88.2229 44.4448C88.4125 44.3662 88.5848 44.2511 88.7299 44.106L93.4174 39.4185C93.7104 39.1255 93.875 38.7281 93.875 38.3137C93.875 37.8993 93.7104 37.5018 93.4174 37.2088C93.1243 36.9157 92.7269 36.7511 92.3125 36.7511C91.8981 36.7511 91.5006 36.9157 91.2076 37.2088V37.208Z" fill="#424651"/>
<path d="M55.8105 59.827L55.8129 59.8254C55.8129 59.8254 65.2369 51.9697 65.2574 51.9492C65.4129 51.8035 65.5369 51.6275 65.6216 51.432C65.7064 51.2364 65.7501 51.0256 65.75 50.8125C65.75 50.8125 65.7129 27.0211 65.683 26.9223C65.5858 26.6013 65.388 26.3201 65.1186 26.1202C64.8493 25.9204 64.5229 25.8125 64.1875 25.8125H39.1875C38.879 25.8124 38.5773 25.9038 38.3207 26.075L28.9457 32.325C28.7561 32.4522 28.5967 32.6194 28.4789 32.815C28.3611 33.0105 28.2877 33.2296 28.2639 33.4566C28.2596 33.4816 28.2568 33.5105 28.2547 33.5406C28.2547 33.5602 28.2518 33.5797 28.2516 33.5992C28.2516 33.6088 28.25 33.6156 28.25 33.6258V58.625C28.25 59.0394 28.4146 59.4368 28.7076 59.7299C29.0007 60.0229 29.3981 60.1875 29.8125 60.1875H54.8125C55.1772 60.188 55.5304 60.0604 55.8105 59.827V59.827ZM62.625 50.0809L56.375 55.2891V34.4611L62.625 30.2945V50.0809ZM53.25 57.0625H31.375V35.1875H37.625V44.5625C37.625 44.9769 37.7896 45.3743 38.0826 45.6674C38.3757 45.9604 38.7731 46.125 39.1875 46.125H45.4375C45.8519 46.125 46.2493 45.9604 46.5424 45.6674C46.8354 45.3743 47 44.9769 47 44.5625V35.1875H53.25V57.0625ZM40.75 43V35.1875H43.875V43H40.75ZM34.973 32.0625L39.6605 28.9375H59.027L54.3395 32.0625H34.973Z" fill="#424651"/>
<path d="M40.75 50.8125H37.625C37.2106 50.8125 36.8132 50.9771 36.5201 51.2701C36.2271 51.5632 36.0625 51.9606 36.0625 52.375C36.0625 52.7894 36.2271 53.1868 36.5201 53.4799C36.8132 53.7729 37.2106 53.9375 37.625 53.9375H40.75C41.1644 53.9375 41.5618 53.7729 41.8549 53.4799C42.1479 53.1868 42.3125 52.7894 42.3125 52.375C42.3125 51.9606 42.1479 51.5632 41.8549 51.2701C41.5618 50.9771 41.1644 50.8125 40.75 50.8125Z" fill="#424651"/>
<path d="M45.4375 52.375C45.4375 52.7894 45.6021 53.1868 45.8951 53.4799C46.1882 53.7729 46.5856 53.9375 47 53.9375H48.5625C48.9769 53.9375 49.3743 53.7729 49.6674 53.4799C49.9604 53.1868 50.125 52.7894 50.125 52.375C50.125 51.9606 49.9604 51.5632 49.6674 51.2701C49.3743 50.9771 48.9769 50.8125 48.5625 50.8125H47C46.5856 50.8125 46.1882 50.9771 45.8951 51.2701C45.6021 51.5632 45.4375 51.9606 45.4375 52.375Z" fill="#424651"/>
<path d="M47 69.5625C47.8629 69.5625 48.5625 68.8629 48.5625 68C48.5625 67.1371 47.8629 66.4375 47 66.4375C46.1371 66.4375 45.4375 67.1371 45.4375 68C45.4375 68.8629 46.1371 69.5625 47 69.5625Z" fill="#424651"/>
<path d="M40.75 69.5625C41.6129 69.5625 42.3125 68.8629 42.3125 68C42.3125 67.1371 41.6129 66.4375 40.75 66.4375C39.8871 66.4375 39.1875 67.1371 39.1875 68C39.1875 68.8629 39.8871 69.5625 40.75 69.5625Z" fill="#424651"/>
<path d="M53.25 69.5625C54.1129 69.5625 54.8125 68.8629 54.8125 68C54.8125 67.1371 54.1129 66.4375 53.25 66.4375C52.3871 66.4375 51.6875 67.1371 51.6875 68C51.6875 68.8629 52.3871 69.5625 53.25 69.5625Z" fill="#424651"/>
</svg>
