<svg xmlns="http://www.w3.org/2000/svg"> 
    <symbol id="bascket" viewBox="0 0 60 60">
        <g>
            <path d="M30 29.9986C30.6468 29.9986 31.1719 29.4736 31.1719 28.8268C31.1719 28.1799 30.6468 27.6549 30 27.6549C29.3532 27.6549 28.8281 28.1799 28.8281 28.8268C28.8281 29.4736 29.3532 29.9986 30 29.9986Z"  fill-opacity="0.77"/>
            <path d="M55.3124 21.4048H48.3823L37.7219 6.73852C36.7643 5.09744 34.6549 4.51334 32.9795 5.44122C31.2812 6.38467 30.6706 8.5238 31.6145 10.2226C31.6415 10.2706 31.6712 10.3169 31.7046 10.3608L40.0661 21.4048H19.9337L28.2952 10.3608C28.3282 10.3169 28.3584 10.2706 28.3854 10.2226C29.327 8.52792 28.7232 6.38696 27.019 5.44031C25.3472 4.51425 23.2379 5.0979 22.2784 6.73761L11.6176 21.4048H4.68749C2.10296 21.4048 0 23.5078 0 26.0923C0 28.1307 1.32293 29.9055 3.18649 30.5335C3.38516 30.6873 3.63326 30.7798 3.90334 30.7798C3.95736 30.7798 4.00817 30.783 4.06127 30.7903C4.56573 30.8581 4.96535 31.2408 5.0569 31.7416L9.04356 53.6749C9.34797 55.3471 10.8027 56.5611 12.5029 56.5611H47.497C49.1971 56.5611 50.6519 55.3471 50.9563 53.6744L54.943 31.742C55.0345 31.2408 55.4346 30.8581 55.9409 30.7903C55.9922 30.783 56.043 30.7798 56.0965 30.7798C56.3684 30.7798 56.6184 30.6864 56.8171 30.5308C58.682 29.8986 59.9999 28.1271 59.9999 26.0923C59.9999 23.5078 57.8969 21.4048 55.3124 21.4048ZM33.6314 9.02277C33.3636 8.46841 33.5714 7.79321 34.1161 7.49109C34.6833 7.1766 35.3983 7.37939 35.711 7.9429C35.7339 7.98501 35.76 8.0253 35.7879 8.06375L45.4847 21.4048H43.0054L33.6314 9.02277ZM24.212 8.06421C24.2399 8.02576 24.2651 7.98593 24.2884 7.94473C24.602 7.38077 25.3175 7.17752 25.8824 7.49017C26.428 7.79321 26.6368 8.4675 26.3685 9.02277L16.9944 21.4048H14.5152L24.212 8.06421ZM55.3124 28.4361H34.6874C34.0401 28.4361 33.5156 28.9607 33.5156 29.6079C33.5156 30.2552 34.0401 30.7679 34.6874 30.7679H52.781C52.7196 30.9428 52.6711 31.1241 52.6372 31.3108L48.6501 53.2551C48.5489 53.8126 48.0637 54.2173 47.497 54.2173H12.5029C11.9357 54.2173 11.4509 53.8126 11.3493 53.2556L7.36266 31.3223C7.32878 31.1355 7.28026 30.9542 7.21892 30.7798H25.3124C25.9597 30.7798 26.4843 30.2552 26.4843 29.6079C26.4843 28.9607 25.9597 28.4361 25.3124 28.4361H4.68749C3.38424 28.4361 2.34374 27.3741 2.34374 26.0923C2.34374 24.8 3.39523 23.7486 4.68749 23.7486H55.3124C56.6047 23.7486 57.6561 24.8 57.6561 26.0923C57.6561 27.3937 56.5914 28.4361 55.3124 28.4361Z"  fill-opacity="0.77"/>
            <path d="M29.9999 33.5143C28.0612 33.5143 26.4843 35.0913 26.4843 37.0299V46.4049C26.4843 48.3435 28.0612 49.9205 29.9999 49.9205C31.9385 49.9205 33.5155 48.3435 33.5155 46.4049V37.0299C33.5155 35.0876 31.9422 33.5143 29.9999 33.5143ZM31.1717 46.4049C31.1717 47.0513 30.6462 47.5768 29.9999 47.5768C29.3535 47.5768 28.828 47.0513 28.828 46.4049V37.0299C28.828 36.3835 29.3535 35.858 29.9999 35.858C30.6467 35.858 31.1717 36.3831 31.1717 37.0299V46.4049Z"  fill-opacity="0.77"/>
            <path d="M41.7186 49.9205C43.6572 49.9205 45.2342 48.3435 45.2342 46.4049V37.0299C45.2342 35.0876 43.6609 33.5143 41.7186 33.5143C39.78 33.5143 38.203 35.0913 38.203 37.0299V46.4049C38.203 48.3435 39.78 49.9205 41.7186 49.9205ZM40.5467 37.0299C40.5467 36.3835 41.0723 35.858 41.7186 35.858C42.3654 35.858 42.8905 36.3831 42.8905 37.0299V46.4049C42.8905 47.0513 42.365 47.5768 41.7186 47.5768C41.0723 47.5768 40.5467 47.0513 40.5467 46.4049V37.0299Z"  fill-opacity="0.77"/>
            <path d="M18.2812 33.5143C16.3426 33.5143 14.7656 35.0913 14.7656 37.0299V46.4049C14.7656 48.3435 16.3426 49.9205 18.2812 49.9205C20.2199 49.9205 21.7969 48.3435 21.7969 46.4049V37.0299C21.7969 35.0876 20.2235 33.5143 18.2812 33.5143ZM19.4531 46.4049C19.4531 47.0513 18.9276 47.5768 18.2812 47.5768C17.6349 47.5768 17.1094 47.0513 17.1094 46.4049V37.0299C17.1094 36.3835 17.6349 35.858 18.2812 35.858C18.9281 35.858 19.4531 36.3826 19.4531 37.0299V46.4049Z"  fill-opacity="0.77"/>

        </g>
    </symbol>
    <symbol id="logo" viewBox="0 0 350 76">
        <g>
            <path d="M70.4403 47.9505C69.9275 47.935 69.7076 47.9163 69.4374 47.8933C69.1975 47.873 68.9192 47.8491 68.3825 47.8216C68.0998 47.8118 67.8171 48.0562 67.802 48.3807C67.7874 48.7051 68.0235 48.9808 68.3294 48.9966C68.8477 49.023 69.1168 49.046 69.3486 49.0658C69.6345 49.0899 69.8668 49.11 70.4089 49.1261C70.4143 49.1264 70.4197 49.1264 70.4251 49.1264C70.7241 49.1264 70.9705 48.874 70.9791 48.555C70.9878 48.2302 70.7463 47.9597 70.4403 47.9505Z"  />
            <path d="M36.6805 45.8574C36.7054 45.8608 36.7303 45.8626 36.7547 45.8626C37.0282 45.8626 37.2664 45.6478 37.3038 45.3526C37.3444 45.0304 37.1311 44.7346 36.8278 44.6915C25.8808 43.1383 7.80903 36.4682 0.915947 30.1964C0.684166 29.985 0.332704 30.0134 0.133957 30.2596C-0.0652973 30.5062 -0.0387617 30.8775 0.193527 31.0888C7.22744 37.4885 25.583 44.2826 36.6805 45.8574Z"  />
            <path d="M42.9643 55.0983C44.2196 55.299 45.405 55.4885 46.8059 55.6565C46.827 55.6591 46.8482 55.6602 46.8687 55.6602C47.1471 55.6602 47.387 55.4385 47.4195 55.1382C47.4536 54.8154 47.2348 54.5242 46.9305 54.4878C45.5501 54.3221 44.3745 54.1343 43.1295 53.9353C42.5203 53.8376 41.8862 53.7363 41.1903 53.6312C40.8892 53.5889 40.6065 53.8089 40.5632 54.1305C40.5199 54.4521 40.7311 54.7499 41.0343 54.7959C41.7264 54.9004 42.3578 55.0012 42.9643 55.0983Z"  />
            <path d="M41.213 38.4649C40.9011 38.4379 40.6444 38.6923 40.6265 39.0168C40.6081 39.341 40.8415 39.6195 41.1469 39.6388C41.8612 39.6841 42.6242 39.7396 43.3997 39.7958C44.9706 39.9101 46.5952 40.0282 47.9891 40.0735C47.9945 40.0738 48.0005 40.0738 48.0064 40.0738C48.3048 40.0738 48.5507 39.8223 48.5604 39.5038C48.5696 39.179 48.3292 38.908 48.0227 38.8979C46.6504 38.8531 45.0362 38.7359 43.4755 38.6225C42.6962 38.5657 41.9305 38.5102 41.213 38.4649Z"  />
            <path d="M69.5863 57.3091C69.7802 57.3272 69.9578 57.3442 70.4067 57.3594C70.4127 57.3597 70.4192 57.3597 70.4251 57.3597C70.723 57.3597 70.9694 57.1087 70.9786 56.7902C70.9889 56.4658 70.7484 56.1941 70.4425 56.1838C70.0277 56.1697 69.8636 56.1545 69.6849 56.1375C69.4926 56.1191 69.2842 56.0994 68.7719 56.0784C68.4751 56.0692 68.2081 56.3182 68.1962 56.6429C68.1843 56.9674 68.4226 57.2408 68.7285 57.2534C69.21 57.2735 69.406 57.2919 69.5863 57.3091Z"  />
            <path d="M0.193527 39.3224C6.77146 45.3077 23.1358 51.9322 36.6718 54.0896C36.6995 54.0942 36.7276 54.0962 36.7547 54.0962C37.0249 54.0962 37.261 53.8871 37.3027 53.5954C37.3482 53.2743 37.1392 52.9748 36.8365 52.9266C23.4743 50.7967 7.36008 44.2935 0.915947 38.43C0.684166 38.2183 0.332704 38.2468 0.133957 38.4932C-0.0652973 38.7398 -0.0387617 39.1111 0.193527 39.3224Z"  />
            <path d="M41.0343 62.4415C43.4907 62.8125 45.9184 63.1379 48.2502 63.4081C48.2708 63.4104 48.2908 63.4115 48.3108 63.4115C48.5903 63.4115 48.8307 63.1884 48.8616 62.8872C48.8946 62.5644 48.6747 62.2741 48.3704 62.2388C46.0505 61.97 43.6353 61.6464 41.1903 61.2768C40.8892 61.2363 40.6065 61.4548 40.5632 61.7762C40.5199 62.0978 40.7311 62.3955 41.0343 62.4415Z"  />
            <path d="M70.4403 63.829C68.4772 63.7702 67.0558 63.6613 64.7006 63.4813C64.021 63.4293 63.2672 63.3716 62.4051 63.3078C62.1073 63.2875 61.8344 63.5295 61.8132 63.8537C61.7921 64.1776 62.0228 64.4585 62.3282 64.4812C63.1892 64.5449 63.942 64.6024 64.6205 64.6543C66.9908 64.8358 68.4215 64.9452 70.4089 65.0046C70.4143 65.0049 70.4197 65.0049 70.4251 65.0049C70.724 65.0049 70.9704 64.7525 70.9791 64.4335C70.9878 64.1087 70.7462 63.8382 70.4403 63.829Z"  />
            <path d="M0.193527 46.9675C7.14133 53.289 21.4566 59.0847 36.6642 61.7334C36.6946 61.7386 36.7249 61.7412 36.7547 61.7412C37.0217 61.7412 37.2567 61.5367 37.3011 61.2484C37.3509 60.928 37.1462 60.6253 36.844 60.5727C21.8226 57.9565 7.72021 52.2658 0.915947 46.075C0.684166 45.8633 0.332704 45.8918 0.133957 46.1381C-0.0652973 46.3848 -0.0387616 46.7561 0.193527 46.9675Z"  />
            <path d="M70.4263 74.1029C70.7322 74.102 70.9803 73.8379 70.9792 73.5131C70.9781 73.1889 70.7301 72.9267 70.4247 72.9267C70.4241 72.9267 70.4236 72.9267 70.423 72.9267C70.292 72.927 70.1637 72.9273 70.0321 72.9273C38.5212 72.9273 8.30399 61.5848 0.895391 55.4666C0.653321 55.2667 0.305108 55.3127 0.117192 55.5694C-0.0706901 55.8256 -0.0273666 56.1952 0.214128 56.3947C7.72782 62.5996 38.2705 74.1035 70.0348 74.1035C70.1653 74.1035 70.2958 74.1032 70.4263 74.1029Z"  />
            <path d="M65.6224 29.3728C65.6224 28.8846 65.6224 27.9672 59.1234 27.6438C58.1308 26.6675 56.8388 26.1323 55.4746 26.1323C54.1105 26.1323 52.824 26.6675 51.8259 27.6438C45.3324 27.9672 45.3324 28.8846 45.3324 29.3728C45.3324 29.8844 45.3324 30.6489 50.7889 31.043C52.2196 31.1488 53.8388 31.2018 55.4746 31.2018C57.116 31.2018 58.7352 31.1488 60.1603 31.043C65.6224 30.6489 65.6224 29.8844 65.6224 29.3728Z"  />
            <path d="M60.0882 31.9959C57.2879 32.1958 53.6669 32.1958 50.8665 31.9959C50.6225 31.9782 50.373 32.1488 50.2954 32.4076C50.1567 32.9016 50.0847 33.425 50.0847 33.9719C50.0847 37.1241 52.5024 39.6883 55.4746 39.6883C58.4469 39.6883 60.8646 37.1241 60.8646 33.9719C60.8646 33.425 60.7981 32.9016 60.6539 32.4076C60.5818 32.1488 60.3322 31.9782 60.0882 31.9959Z"  />
            <path d="M0.0243869 20.1551C0.0280085 20.1688 0.0295993 20.1829 0.0342363 20.1964C0.0363686 20.2029 0.0366055 20.2097 0.0389409 20.2161C3.6267 29.7316 26.0128 37.3592 36.6375 39.1529C36.6707 39.1588 36.6985 39.1588 36.7262 39.1588C36.9924 39.1588 37.2308 38.953 37.2751 38.6648C37.3195 38.3414 37.1144 38.0414 36.8149 37.9944C27.9869 36.5006 12.5878 31.3194 5.05185 24.8856C3.43263 23.4977 2.17384 22.0569 1.42526 20.5866H42.8259V24.6915C42.8259 24.7621 42.837 24.8209 42.8537 24.8797C42.9257 25.1208 43.142 25.2914 43.3916 25.2914H70.4134C70.724 25.2914 70.9791 25.0209 70.9791 24.6915V17.3462C70.9569 17.3521 70.9347 17.3521 70.9125 17.3521H59.5005V24.0975H55.214V20.2161C55.214 18.4047 53.8221 16.9286 52.1142 16.9286H51.5541C49.8462 16.9286 48.4544 18.4047 48.4544 20.2161V24.0975H43.9516V15.5819C43.9516 14.8703 44.0348 14.1704 44.2123 13.5059C45.0829 10.0067 48.1161 7.49549 51.5874 7.38376C53.1456 7.44255 54.6484 7.91305 55.9404 8.75403C56.3674 9.04219 56.7611 9.35388 57.1104 9.68321C58.6465 11.1652 59.5005 13.1177 59.5005 15.182V16.1758H70.9125C70.9347 16.1758 70.9569 16.1758 70.9791 16.1817V15.0408V14.882V9.66558C70.9791 9.50678 70.9181 9.34802 70.8072 9.23629C70.5909 9.01865 70.3636 8.77756 70.1196 8.5129C68.8331 7.13676 66.8923 5.06074 62.75 2.79658C58.9737 0.732326 54.6096 1.44981 50.8111 2.46726C50.8166 2.47312 50.8277 2.47312 50.8332 2.47899C50.8832 2.50252 50.9275 2.52606 50.9774 2.54955C51.0107 2.56132 51.0384 2.57899 51.0662 2.60249C51.0717 2.60839 51.0828 2.61425 51.0939 2.62016C51.1216 2.63779 51.1493 2.66129 51.1715 2.68485C51.1785 2.69227 51.1843 2.70348 51.1912 2.71164C51.1447 2.65772 51.0892 2.61079 51.0233 2.57719C50.5928 2.35807 50.1401 2.13871 49.6565 1.9061C49.1301 1.65684 48.5756 1.40126 47.9907 1.14745C42.7336 -1.16907 36.9062 0.460561 30.7361 2.18521C29.1283 2.63461 27.4664 3.09923 25.8077 3.49266C25.1087 3.65951 24.4766 3.79718 23.8767 3.9135C23.8605 3.90781 23.8442 3.90205 23.828 3.89633C20.0333 2.53733 15.9216 2.43143 11.6077 3.57142C11.0971 3.40082 10.5899 3.20969 10.0964 2.99241C9.91386 2.91376 9.7319 2.83535 9.55319 2.76415C6.37985 1.47822 3.84877 1.0455 0.5265 1.22667C0.220527 1.24306 -0.0144688 1.5196 0.0006944 1.8438C0.0163653 2.16857 0.274682 2.42069 0.582821 2.40115C3.73992 2.23147 6.14214 2.64065 9.16007 3.86424C9.33333 3.93287 9.50554 4.00725 9.6745 4.08018C9.70669 4.09435 9.74026 4.10629 9.77259 4.12032C9.73823 4.13244 9.70378 4.14467 9.67101 4.15509C5.82263 5.49006 2.54541 8.03064 0.770939 9.40091C0.571313 9.55385 0.393855 9.69497 0.233017 9.81851C0.0888307 9.93024 0.00015289 10.1067 0.00015289 10.2949V19.9985C0.00015289 20.0096 0.00455295 20.0197 0.00512834 20.0306C0.00715913 20.0726 0.0139284 20.1138 0.0243869 20.1551ZM49.5856 20.2161C49.5856 19.0634 50.4673 18.1283 51.5541 18.1283H52.1142C53.2011 18.1283 54.0883 19.0634 54.0883 20.2161V24.0975H49.5856V20.2161ZM51.3212 2.99061C51.3262 3.02199 51.3301 3.05443 51.3311 3.08983C51.3297 3.04446 51.3237 3.00001 51.3127 2.95651C51.3151 2.96789 51.3191 2.97923 51.3212 2.99061ZM51.331 3.16227C51.3299 3.18185 51.3261 3.19856 51.3212 3.21411C51.3174 3.23849 51.3096 3.26054 51.3021 3.28319C51.3141 3.24301 51.3274 3.20308 51.331 3.16227ZM51.2491 2.79068C51.2677 2.82019 51.2801 2.85326 51.2909 2.88408C51.2702 2.83118 51.2437 2.7809 51.2091 2.73602C51.2227 2.75415 51.2377 2.76945 51.2491 2.79068ZM51.2341 3.43103C51.2268 3.44354 51.2205 3.45623 51.2103 3.46704C51.1993 3.48464 51.1882 3.5023 51.1715 3.51994C51.1708 3.52075 51.1703 3.52078 51.1696 3.52156C51.1946 3.49531 51.2138 3.46269 51.2341 3.43103ZM51.0965 3.58202C51.088 3.58835 51.0812 3.59619 51.0717 3.60227C51.0624 3.60962 51.0501 3.61068 51.0404 3.61704C51.0596 3.60612 51.0786 3.59531 51.0965 3.58202ZM23.828 3.92573C23.8356 3.92304 23.8432 3.9217 23.8508 3.92032C23.8394 3.92205 23.8287 3.92732 23.8173 3.92976C23.8211 3.92894 23.8241 3.92643 23.828 3.92573ZM23.9221 5.08953C23.9231 5.08953 23.9242 5.08953 23.9253 5.08953C23.9329 5.09211 23.9925 5.08639 24.0271 5.08006C24.6564 4.95886 25.3187 4.81501 26.0503 4.64042C27.729 4.24212 29.4012 3.77463 31.0188 3.32266C37.0026 1.64939 42.654 0.0705997 47.5678 2.23461C48.1445 2.485 48.6882 2.73542 49.2011 2.97863C49.6743 3.20637 50.1195 3.4223 50.5435 3.63796C50.6702 3.70262 50.8069 3.70555 50.932 3.6681C50.9283 3.66902 50.9257 3.67205 50.922 3.67283C50.922 3.67873 50.922 3.67873 50.9164 3.67283C50.8998 3.67873 50.8832 3.6846 50.8665 3.6846C50.8665 3.6846 50.861 3.69046 50.8554 3.69046C50.2399 3.86103 49.6133 4.04336 48.9922 4.23742C48.1327 4.50205 47.2677 4.78434 46.3971 5.06664C42.2437 6.41928 37.9961 7.80131 33.693 7.80131C31.1311 7.80131 28.5414 7.30729 25.9462 6.03112L25.7522 5.93112C25.0756 5.59006 24.4047 5.296 23.7504 5.06074C23.7413 5.05741 23.7346 5.05031 23.7257 5.0465C23.7891 5.07197 23.8551 5.08953 23.9221 5.08953ZM0.898473 12.9413H4.23669V10.883C4.23669 10.5595 4.48624 10.2949 4.79678 10.2949C5.10177 10.2949 5.35129 10.5595 5.35129 10.883V12.9413H8.12944V10.883C8.12944 10.5595 8.37896 10.2949 8.6895 10.2949C8.99449 10.2949 9.24404 10.5595 9.24404 10.883V12.9413H12.0222V11.03C12.0222 10.7065 12.2773 10.4419 12.5823 10.4419C12.8872 10.4419 13.1368 10.7065 13.1368 11.03V12.9413H15.9205V11.03C15.9205 10.7065 16.17 10.4419 16.475 10.4419C16.78 10.4419 17.0295 10.7065 17.0295 11.03V12.9413H19.8132V11.03C19.8132 10.7065 20.0628 10.4419 20.3678 10.4419C20.6728 10.4419 20.9223 10.7065 20.9223 11.03V12.9413H23.706V11.177C23.706 10.8536 23.9555 10.5889 24.2605 10.5889C24.5655 10.5889 24.8151 10.8536 24.8151 11.177V12.9413H27.5988V11.177C27.5988 10.8536 27.8483 10.5889 28.1533 10.5889C28.4583 10.5889 28.7078 10.8536 28.7078 11.177V12.9413H31.4915V11.177C31.4915 10.8536 31.741 10.5889 32.046 10.5889C32.351 10.5889 32.6005 10.8536 32.6005 11.177V12.9413H35.3842V11.177C35.3842 10.8536 35.6338 10.5889 35.9388 10.5889C36.2437 10.5889 36.4988 10.8536 36.4988 11.177V12.9413H39.8315V11.177C39.8315 10.8536 40.0811 10.5889 40.3916 10.5889C40.6966 10.5889 40.9461 10.8536 40.9461 11.177V12.9413H43.1898C43.1665 13.0251 43.1421 13.1065 43.1199 13.1942C43.0589 13.4353 43.0089 13.6882 42.9646 13.9469C42.9547 14.0031 42.9514 14.061 42.9426 14.1175H40.9461V19.4104H39.9258H39.8315V14.1175H36.4988V19.4104H35.4896H35.3842V14.1175H32.6005V19.4104H31.608H31.4915V14.1175H28.7078V19.4104H27.7263H27.5988V14.1175H24.8151V19.4104H23.8446H23.706V14.1175H20.9223V19.4104H19.963H19.8132V14.1175H17.0295V19.4104H16.0813H15.9205V14.1175H13.1368V19.4104H12.1997H12.0222V14.1175H9.24404V19.4104H8.31797H8.12944V14.1175H5.35129V19.4104H4.43631H4.23669V14.1175H0.898473C0.593482 14.1175 0.343932 13.8529 0.343932 13.5294C0.343932 13.206 0.593482 12.9413 0.898473 12.9413Z"  />
            <path d="M36.2191 30.8209C35.9126 30.8209 35.6646 31.0842 35.6646 31.409V37.0674C35.6646 37.3922 35.9126 37.6555 36.2191 37.6555H38.4155V67.6587C38.4155 67.9835 38.6635 68.2468 38.97 68.2468C39.2766 68.2468 39.5245 67.9835 39.5245 67.6587V44.649L39.5266 44.6516L43.3916 49.5799C43.8408 50.1503 44.5283 50.4738 45.2492 50.4738C45.3602 50.4738 45.4711 50.4679 45.5875 50.4502C46.1088 50.3797 46.6466 50.0856 47.1013 49.6152L49.1697 47.4157V55.8255C49.1697 56.5838 49.626 57.2284 50.2636 57.4765C50.2615 57.4972 50.2522 57.5151 50.2522 57.5363V69.2866C50.2522 70.159 50.9237 70.8685 51.749 70.8685H53.2019C54.0277 70.8685 54.6992 70.159 54.6992 69.2866V57.5898H56.2577V69.2866C56.2577 70.159 56.9265 70.8685 57.7491 70.8685H59.2074C60.03 70.8685 60.6993 70.159 60.6993 69.2866V57.5481C60.6993 57.5231 60.6888 57.5018 60.6859 57.4776C61.324 57.2303 61.7851 56.585 61.7851 55.8255V48.2285C62.3083 48.8689 62.7439 49.4255 62.8156 49.5634C63.2786 50.8235 63.1817 54.9373 63.1059 56.4161C63.1048 56.4351 63.1048 56.4604 63.1053 56.4793C63.1275 57.0393 63.3571 57.5579 63.7508 57.9392C64.1245 58.301 64.6005 58.4969 65.1009 58.4969C65.1339 58.4969 65.1675 58.496 65.2005 58.4943C65.7323 58.4668 66.2223 58.2195 66.5814 57.7985C66.9399 57.3778 67.1229 56.836 67.0969 56.272C67.0969 56.272 66.8365 50.7419 66.7531 48.8984C66.7363 48.525 66.3669 47.5042 66.1449 47.2179C65.0516 45.8088 61.7391 41.6097 61.7391 41.6097L61.6734 41.668C61.4344 41.0046 60.8251 40.5349 60.1215 40.5349H50.8333C50.3231 40.5349 49.8629 40.7819 49.5579 41.1642C49.4692 41.1818 45.3602 45.4514 45.3602 45.4514L42.0108 41.1877C41.6338 40.6996 41.0681 40.4232 40.4692 40.4232C40.131 40.4232 39.8094 40.5114 39.5266 40.6701C39.5258 40.6706 39.5253 40.6712 39.5245 40.6716V37.6555H41.5542C41.8607 37.6555 42.1087 37.3922 42.1087 37.0674V31.3205C42.1087 30.9957 41.8607 30.7324 41.5542 30.7324C41.2477 30.7324 40.9997 30.9957 40.9997 31.3205V36.4793H39.4411V31.3205C39.4411 30.9957 39.1932 30.7324 38.8866 30.7324C38.5801 30.7324 38.3321 30.9957 38.3321 31.3205V36.4793H36.7736V31.409C36.7736 31.0842 36.5256 30.8209 36.2191 30.8209Z"  />
            <path d="M70.4284 39.2754L63.1806 39.2544C63.18 39.2544 63.1795 39.2544 63.179 39.2544C62.8736 39.2544 62.6255 39.5166 62.6245 39.8408C62.6234 40.1656 62.8714 40.4298 63.1773 40.4306L70.4251 40.4516C70.4257 40.4516 70.4262 40.4516 70.4268 40.4516C70.7322 40.4516 70.9802 40.1894 70.9813 39.8652C70.9824 39.5404 70.7344 39.2762 70.4284 39.2754Z"  />
            <path d="M111.36 29.6028L113.479 28.0616V26.107H103.994V28.0616L106.063 29.6028V32.1213C99.087 32.1964 94 35.9678 94 45.3526C94 48.7731 94 52.2814 94 55.7772C94 65.1494 99.087 68.5073 106.063 68.5073V71.3014L103.604 73.1308V75.0854C106.842 75.0854 110.58 75.0854 113.818 75.0854V73.1308L111.36 71.3014V68.5073C118.336 68.5073 123.413 65.1494 123.413 55.7772C123.413 52.2814 123.413 48.7731 123.413 45.3526C123.413 36.3939 118.726 32.3343 111.36 32.1213V29.6028ZM106.063 64.3099C101.765 64.3099 99.8066 60.8141 99.8066 55.7772C99.8066 52.2814 99.8066 48.7731 99.8066 45.3526C99.8066 40.2405 101.765 36.3938 106.063 36.3187V64.3099ZM117.606 45.3526C117.606 48.7731 117.606 52.2814 117.606 55.7772C117.606 60.8141 115.657 64.3099 111.36 64.3099V36.3187C114.818 36.3187 117.606 38.6367 117.606 45.3526ZM147.689 75.0854V65.2246H145.35L143.561 71.101H135.246V70.7501C136.135 70.3993 136.365 69.8355 136.365 68.783V55.1507H140.942L142.332 58.3583H143.901V47.7332H142.332L140.942 51.1538H136.365V34.8527H142.951L144.4 40.8043H147.019V30.9309H129.049V32.6099L130.898 34.3641V71.2388L128.72 73.1934V75.0854H147.689ZM173.194 41.2178C173.194 33.4494 168.616 30.9309 163.209 30.9309H152.995V32.8229L154.834 34.5771V71.2388L152.656 73.1934V75.0854H162.2V73.1934L160.141 71.2388V59.06H163.1C168.616 59.06 173.194 57.0302 173.194 49.0613V41.2178ZM163.259 34.9905C166.607 34.9905 167.727 37.3085 167.727 41.2178V49.0613C167.727 52.9706 166.498 55.2885 163.209 55.2885H160.141V34.9905H163.259ZM183.747 43.9492L183.578 35.9678C183.687 35.9678 183.637 35.9678 183.747 35.9678C185.526 48.4223 187.035 60.2503 188.605 72.7799C188.764 74.0329 189.274 74.5967 190.384 74.5967H194.791L200.098 35.4792C200.158 35.4792 200.268 35.4792 200.318 35.4792C200.158 41.7816 200.158 41.7064 200.158 41.6438V71.2388L198.029 73.1934V75.0854H207.683V73.1934L205.565 71.2388V34.5771L207.464 32.8229V30.9309C204.505 30.9309 202.886 31.0061 199.928 31.0061C197.979 31.0061 197.309 31.2191 196.92 33.6624L192.672 66.7532C192.622 66.7532 192.622 66.7532 192.562 66.7532C191.563 54.4491 190.553 46.3925 188.764 34.0132C188.095 30.5175 186.926 30.9309 183.018 30.9309H178.111V32.8229L180.01 34.5771V71.3014L178.001 73.0556V75.0854H185.806V73.0556L183.747 71.3014V43.9492ZM231.849 75.0854V65.2246H229.511L227.722 71.101H219.407V70.7501C220.296 70.3993 220.526 69.8355 220.526 68.783V55.1507H225.103L226.492 58.3583H228.061V47.7332H226.492L225.103 51.1538H220.526V34.8527H227.112L228.561 40.8043H231.18V30.9309H213.21V32.6099L215.049 34.3641V71.2388L212.88 73.1934V75.0854H231.849ZM257.354 41.2178C257.354 33.4494 252.777 30.9309 247.37 30.9309H237.156V32.8229L238.995 34.5771V71.2388L236.816 73.1934V75.0854H246.361V73.1934L244.302 71.2388V59.06H247.26C252.777 59.06 257.354 57.0302 257.354 49.0613V41.2178ZM247.42 34.9905C250.768 34.9905 251.888 37.3085 251.888 41.2178V49.0613C251.888 52.9706 250.658 55.2885 247.37 55.2885H244.302V34.9905H247.42ZM297.541 26.0318C295.422 26.0318 292.963 25.6935 291.174 27.2222C286.097 31.7078 288.166 47.1693 281.08 47.1693V29.891L283.199 28.0616V26.0318H273.315V28.0616L275.444 29.891C275.444 43.5984 275.444 57.2432 275.444 70.9631L272.985 73.0556V75.0854C276.163 75.0854 280.351 75.0854 283.589 75.0854V73.0556L281.08 70.9631C281.08 64.3099 281.08 57.7318 281.08 51.0911H282.749C286.267 51.0911 287.547 54.5869 288.276 58.9222L289.895 68.6451C290.565 72.5669 291.794 75.5114 295.362 75.5114C296.371 75.5114 297.99 75.361 299.1 74.5967V71.8653C297.371 72.3539 296.202 70.0485 295.812 67.743L294.083 57.5188C293.303 53.0457 291.734 48.7105 288.836 48.3597V48.2218C291.404 47.1693 293.133 35.7674 294.363 32.1213C295.082 29.9536 295.642 28.7007 297.541 28.7633V26.0318ZM323.765 41.9946C323.765 34.8527 319.748 30.2418 313.561 30.2418C307.365 30.2418 303.397 34.9279 303.397 41.9946C303.397 49.337 303.397 56.6167 303.397 63.9591C303.397 71.0258 307.365 75.7119 313.561 75.7119C319.748 75.7119 323.765 71.1009 323.765 63.9591V41.9946ZM308.874 41.9946C308.874 37.0955 310.323 34.6397 313.561 34.6397C316.789 34.6397 318.299 37.935 318.299 41.9946C318.299 49.337 318.299 56.6167 318.299 63.9591C318.299 67.9435 316.789 71.3014 313.561 71.3014C310.323 71.3014 308.874 68.783 308.874 63.9591V41.9946ZM345.703 35.0657L347.492 42.1324H350L349.78 30.9309C342.914 30.9309 336.048 30.9309 329.132 30.9309L328.962 42.1324H331.471L333.15 35.0657H336.718C336.718 47.0315 336.718 58.9221 336.718 70.8128L334.599 72.8426V75.0854C337.497 75.0854 341.405 75.0854 344.303 75.0854V72.8426L342.245 70.8128C342.245 58.9221 342.245 47.0315 342.245 35.0657H345.703Z"  />
        </g>
    </symbol>
    <symbol id="close" viewBox="0 0 50 50">
        <g>
            <path d="M25 0C11.1928 0 0 11.1928 0 25C0.0155242 38.8007 11.1993 49.9845 25 50C38.8072 50 50 38.8072 50 25C50 11.1928 38.8072 0 25 0ZM25 48.3871C12.0837 48.3871 1.6129 37.9163 1.6129 25C1.62762 12.0897 12.0897 1.62762 25 1.6129C37.9163 1.6129 48.3871 12.0837 48.3871 25C48.3871 37.9163 37.9163 48.3871 25 48.3871Z" />
            <path d="M40.3226 24.1937H25.8065V9.67755C25.8065 9.23218 25.4454 8.87109 25 8.87109C24.5546 8.87109 24.1936 9.23218 24.1936 9.67755V24.1937H9.67742C9.23206 24.1937 8.87097 24.5548 8.87097 25.0001C8.87097 25.4455 9.23206 25.8066 9.67742 25.8066H24.1936V40.3227C24.1936 40.7681 24.5546 41.1292 25 41.1292C25.4454 41.1292 25.8065 40.7681 25.8065 40.3227V25.8066H40.3226C40.7679 25.8066 41.129 25.4455 41.129 25.0001C41.129 24.5548 40.7679 24.1937 40.3226 24.1937Z" />
        </g>
    </symbol>
    <symbol id="plus" viewBox="0 0 50 50">
        <g>
            <path d="M40.3226 24.1937H25.8065V9.67755C25.8065 9.23218 25.4454 8.87109 25 8.87109C24.5546 8.87109 24.1936 9.23218 24.1936 9.67755V24.1937H9.67742C9.23206 24.1937 8.87097 24.5548 8.87097 25.0001C8.87097 25.4455 9.23206 25.8066 9.67742 25.8066H24.1936V40.3227C24.1936 40.7681 24.5546 41.1292 25 41.1292C25.4454 41.1292 25.8065 40.7681 25.8065 40.3227V25.8066H40.3226C40.7679 25.8066 41.129 25.4455 41.129 25.0001C41.129 24.5548 40.7679 24.1937 40.3226 24.1937Z" />
        </g>
    </symbol>
    <symbol id="exchange" viewBox="0 0 94 86">
        <g>
            <path d="M2.79236 48.7934L4.96873 46.618C5.8545 56.8931 10.473 66.4879 17.9516 73.5894C25.4303 80.6909 35.251 84.8073 45.5581 85.1608C55.8652 85.5142 65.9448 82.0803 73.8923 75.5077C81.8398 68.9352 87.1048 59.6794 88.6924 49.4891C88.7556 49.0796 88.6536 48.6617 88.4087 48.3273C88.1638 47.993 87.7962 47.7697 87.3866 47.7064C86.9771 47.6432 86.5592 47.7452 86.2248 47.9901C85.8905 48.235 85.6671 48.6026 85.6039 49.0122C84.143 58.3953 79.3143 66.9251 72.0208 73.0065C64.7274 79.0879 55.4685 82.3045 45.9756 82.0548C36.4826 81.8051 27.4057 78.1063 20.442 71.6499C13.4783 65.1935 9.10469 56.4217 8.13904 46.9747L9.9576 48.7934C10.2506 49.0865 10.6481 49.2511 11.0625 49.2511C11.4769 49.2511 11.8743 49.0865 12.1674 48.7934C12.4604 48.5004 12.625 48.1029 12.625 47.6885C12.625 47.2741 12.4604 46.8767 12.1674 46.5836L7.47986 41.8962C7.33477 41.7511 7.16252 41.636 6.97294 41.5574C6.78336 41.4789 6.58018 41.4385 6.37498 41.4385C6.16978 41.4385 5.9666 41.4789 5.77702 41.5574C5.58744 41.636 5.41519 41.7511 5.2701 41.8962L0.582597 46.5836C0.437501 46.7287 0.322405 46.901 0.24388 47.0906C0.165355 47.2801 0.124939 47.4833 0.124939 47.6885C0.124939 47.8937 0.165355 48.0969 0.24388 48.2865C0.322405 48.4761 0.437501 48.6483 0.582597 48.7934C0.727692 48.9385 0.899945 49.0536 1.08952 49.1321C1.2791 49.2107 1.48228 49.2511 1.68748 49.2511C1.89268 49.2511 2.09586 49.2107 2.28544 49.1321C2.47501 49.0536 2.64727 48.9385 2.79236 48.7934V48.7934Z" fill="#424651"/>
            <path d="M91.2076 37.208L89.0318 39.3838C88.146 29.1088 83.5275 19.514 76.049 12.4125C68.5704 5.31105 58.7497 1.19467 48.4427 0.841212C38.1356 0.487756 28.0561 3.92171 20.1086 10.4942C12.1611 17.0667 6.89616 26.3225 5.3086 36.5127C5.24535 36.9222 5.34739 37.3402 5.59226 37.6745C5.83714 38.0088 6.2048 38.2322 6.61436 38.2954C7.02391 38.3586 7.44182 38.2566 7.77615 38.0117C8.11047 37.7669 8.33382 37.3992 8.39707 36.9896C9.85917 27.6072 14.6884 19.0785 21.9819 12.998C29.2754 6.91757 38.5339 3.70165 48.0262 3.95154C57.5186 4.20142 66.595 7.9 73.5585 14.3558C80.522 20.8116 84.8958 29.5826 85.8623 39.0289L84.0424 37.2088C83.8973 37.0637 83.725 36.9486 83.5354 36.8701C83.3459 36.7915 83.1427 36.7511 82.9375 36.7511C82.7323 36.7511 82.5291 36.7915 82.3395 36.8701C82.1499 36.9486 81.9777 37.0637 81.8326 37.2088C81.6875 37.3539 81.5724 37.5261 81.4939 37.7157C81.4153 37.9053 81.3749 38.1085 81.3749 38.3137C81.3749 38.5189 81.4153 38.722 81.4939 38.9116C81.5724 39.1012 81.6875 39.2734 81.8326 39.4185L86.5201 44.106C86.6652 44.2511 86.8374 44.3662 87.027 44.4448C87.2166 44.5233 87.4198 44.5637 87.625 44.5637C87.8302 44.5637 88.0334 44.5233 88.2229 44.4448C88.4125 44.3662 88.5848 44.2511 88.7299 44.106L93.4174 39.4185C93.7104 39.1255 93.875 38.7281 93.875 38.3137C93.875 37.8993 93.7104 37.5018 93.4174 37.2088C93.1243 36.9157 92.7269 36.7511 92.3125 36.7511C91.8981 36.7511 91.5006 36.9157 91.2076 37.2088V37.208Z" fill="#424651"/>
            <path d="M55.8105 59.827L55.8129 59.8254C55.8129 59.8254 65.2369 51.9697 65.2574 51.9492C65.4129 51.8035 65.5369 51.6275 65.6216 51.432C65.7064 51.2364 65.7501 51.0256 65.75 50.8125C65.75 50.8125 65.7129 27.0211 65.683 26.9223C65.5858 26.6013 65.388 26.3201 65.1186 26.1202C64.8493 25.9204 64.5229 25.8125 64.1875 25.8125H39.1875C38.879 25.8124 38.5773 25.9038 38.3207 26.075L28.9457 32.325C28.7561 32.4522 28.5967 32.6194 28.4789 32.815C28.3611 33.0105 28.2877 33.2296 28.2639 33.4566C28.2596 33.4816 28.2568 33.5105 28.2547 33.5406C28.2547 33.5602 28.2518 33.5797 28.2516 33.5992C28.2516 33.6088 28.25 33.6156 28.25 33.6258V58.625C28.25 59.0394 28.4146 59.4368 28.7076 59.7299C29.0007 60.0229 29.3981 60.1875 29.8125 60.1875H54.8125C55.1772 60.188 55.5304 60.0604 55.8105 59.827V59.827ZM62.625 50.0809L56.375 55.2891V34.4611L62.625 30.2945V50.0809ZM53.25 57.0625H31.375V35.1875H37.625V44.5625C37.625 44.9769 37.7896 45.3743 38.0826 45.6674C38.3757 45.9604 38.7731 46.125 39.1875 46.125H45.4375C45.8519 46.125 46.2493 45.9604 46.5424 45.6674C46.8354 45.3743 47 44.9769 47 44.5625V35.1875H53.25V57.0625ZM40.75 43V35.1875H43.875V43H40.75ZM34.973 32.0625L39.6605 28.9375H59.027L54.3395 32.0625H34.973Z" fill="#424651"/>
            <path d="M40.75 50.8125H37.625C37.2106 50.8125 36.8132 50.9771 36.5201 51.2701C36.2271 51.5632 36.0625 51.9606 36.0625 52.375C36.0625 52.7894 36.2271 53.1868 36.5201 53.4799C36.8132 53.7729 37.2106 53.9375 37.625 53.9375H40.75C41.1644 53.9375 41.5618 53.7729 41.8549 53.4799C42.1479 53.1868 42.3125 52.7894 42.3125 52.375C42.3125 51.9606 42.1479 51.5632 41.8549 51.2701C41.5618 50.9771 41.1644 50.8125 40.75 50.8125Z" fill="#424651"/>
            <path d="M45.4375 52.375C45.4375 52.7894 45.6021 53.1868 45.8951 53.4799C46.1882 53.7729 46.5856 53.9375 47 53.9375H48.5625C48.9769 53.9375 49.3743 53.7729 49.6674 53.4799C49.9604 53.1868 50.125 52.7894 50.125 52.375C50.125 51.9606 49.9604 51.5632 49.6674 51.2701C49.3743 50.9771 48.9769 50.8125 48.5625 50.8125H47C46.5856 50.8125 46.1882 50.9771 45.8951 51.2701C45.6021 51.5632 45.4375 51.9606 45.4375 52.375Z" fill="#424651"/>
            <path d="M47 69.5625C47.8629 69.5625 48.5625 68.8629 48.5625 68C48.5625 67.1371 47.8629 66.4375 47 66.4375C46.1371 66.4375 45.4375 67.1371 45.4375 68C45.4375 68.8629 46.1371 69.5625 47 69.5625Z" fill="#424651"/>
            <path d="M40.75 69.5625C41.6129 69.5625 42.3125 68.8629 42.3125 68C42.3125 67.1371 41.6129 66.4375 40.75 66.4375C39.8871 66.4375 39.1875 67.1371 39.1875 68C39.1875 68.8629 39.8871 69.5625 40.75 69.5625Z" fill="#424651"/>
            <path d="M53.25 69.5625C54.1129 69.5625 54.8125 68.8629 54.8125 68C54.8125 67.1371 54.1129 66.4375 53.25 66.4375C52.3871 66.4375 51.6875 67.1371 51.6875 68C51.6875 68.8629 52.3871 69.5625 53.25 69.5625Z" fill="#424651"/>
        </g>
    </symbol>
    <symbol id="trophy" viewBox="0 0 75 75">
        <g>
            <path d="M70.9742 13.041C70.8046 11.1388 69.2365 9.70438 67.3267 9.70438H57.8525V8.30814H58.0369C59.3898 8.30814 60.4904 7.2075 60.4904 5.85476V2.45338C60.4904 1.10064 59.3898 0 58.0369 0H30.1517C29.545 0 29.0531 0.49173 29.0531 1.09859C29.0531 1.70545 29.545 2.19718 30.1517 2.19718H58.0369C58.1782 2.19718 58.2932 2.31202 58.2932 2.45338V5.85476C58.2932 5.99612 58.1782 6.11095 58.0369 6.11095H16.9633C16.822 6.11095 16.707 5.99612 16.707 5.85476V2.45338C16.707 2.31202 16.822 2.19718 16.9633 2.19718H25.0008C25.6075 2.19718 26.0994 1.70545 26.0994 1.09859C26.0994 0.49173 25.6075 0 25.0008 0H16.9633C15.6104 0 14.5098 1.10064 14.5098 2.45338V5.85476C14.5098 7.2075 15.6104 8.30814 16.9633 8.30814H17.1477V9.70438H7.67347C5.76368 9.70438 4.19562 11.1388 4.026 13.041C4.00374 13.2897 3.5101 19.2109 5.93477 25.7687C8.15319 31.7688 13.2428 39.4299 24.9039 42.4366C26.7812 43.9198 28.9248 45.0805 31.2504 45.8327L31.8034 46.7454C32.8485 48.4708 33.4009 50.5105 33.4009 52.6439C33.4009 53.9472 33.1932 55.2204 32.7836 56.4278L32.0158 58.6906H29.461C26.8394 58.6906 24.7063 60.8236 24.7063 63.4454V65.7468H20.708C19.5797 65.7468 18.6617 66.6649 18.6617 67.7932V72.9537C18.6617 74.082 19.5797 75 20.708 75H54.2923C55.4206 75 56.3386 74.082 56.3386 72.9537V67.7932C56.3386 66.6649 55.4206 65.7468 54.2923 65.7468H50.294V63.4454C50.294 60.8236 48.161 58.6906 45.5393 58.6906H42.9846L42.2167 56.4278C41.807 55.2205 41.5993 53.9473 41.5993 52.6439C41.5993 50.5106 42.1517 48.4709 43.1968 46.7454L43.7498 45.8327C46.0754 45.0805 48.2188 43.92 50.0963 42.4366C61.7575 39.4299 66.847 31.7688 69.0654 25.7687C71.4901 19.2109 70.9965 13.2899 70.9742 13.041ZM17.5545 30.5195C15.5061 28.6018 13.9369 26.2228 12.8637 23.3874C12.1179 21.4173 11.6299 19.2782 11.4126 17.0283H17.1477V26.4633C17.1477 27.8519 17.2882 29.2083 17.5545 30.5195ZM7.99573 25.0069C5.74068 18.9078 6.19418 13.4649 6.21454 13.2363C6.28236 12.4755 6.90959 11.9017 7.67347 11.9017H17.1477V14.8313H11.3217C10.7281 14.8313 10.1586 15.0828 9.75904 15.5213C9.35901 15.9605 9.16126 16.5517 9.21648 17.1435C9.44777 19.6223 9.98345 21.9849 10.8087 24.1654C12.4386 28.4716 15.0768 31.834 18.6881 34.2277C19.3987 35.9427 20.3372 37.5402 21.4659 38.9823C13.5066 35.6831 9.75802 29.773 7.99573 25.0069ZM54.1414 67.944V72.8028H20.8588V67.944H54.1414ZM45.5393 60.8878C46.9495 60.8878 48.0968 62.0351 48.0968 63.4454V65.7468H26.9035V63.4454C26.9035 62.0351 28.0509 60.8878 29.461 60.8878H45.5393ZM40.1361 57.1338L40.6643 58.6906H34.3357L34.8641 57.1337C35.351 55.6983 35.5979 54.1878 35.5979 52.6439C35.5979 50.4829 35.115 48.3966 34.1966 46.5462C35.2722 46.7225 36.3753 46.8157 37.5001 46.8157C38.6248 46.8157 39.728 46.7225 40.8035 46.5462C39.8851 48.3966 39.4021 50.4829 39.4021 52.6439C39.4023 54.188 39.6491 55.6985 40.1361 57.1338ZM37.5001 44.6184C27.4893 44.6184 19.3449 36.474 19.3449 26.4633V8.30814H55.6553V26.4633C55.6553 36.4741 47.5109 44.6184 37.5001 44.6184ZM67.0046 25.0069C65.2423 29.7732 61.4936 35.6839 53.5338 38.983C54.6646 37.5383 55.6046 35.9377 56.3158 34.2192C59.4166 32.1602 61.8046 29.387 63.449 25.9146C63.7087 25.3663 63.4746 24.7111 62.9264 24.4516C62.3782 24.192 61.7232 24.4258 61.4633 24.9742C60.4453 27.1241 59.1027 28.9763 57.4448 30.5262C57.712 29.213 57.8528 27.8544 57.8528 26.4635V17.0285H63.5879C63.4786 18.1588 63.2969 19.2799 63.0478 20.362C62.9117 20.9534 63.2807 21.5431 63.872 21.679C64.4628 21.8158 65.0529 21.4463 65.189 20.8549C65.4664 19.6496 65.6665 18.4008 65.784 17.1435C65.8392 16.5517 65.6415 15.9605 65.2415 15.5213C64.8419 15.0828 64.2724 14.8313 63.6788 14.8313H57.8528V11.9017H67.327C68.0909 11.9017 68.7181 12.4755 68.7859 13.2364C68.806 13.4649 69.2595 18.9078 67.0046 25.0069Z" fill="#424651"/>
            <path d="M44.7241 21.3367L41.5739 20.879C41.4367 20.8589 41.3182 20.7728 41.2568 20.6486L39.848 17.794C39.4037 16.8937 38.504 16.3345 37.5001 16.3345C36.4961 16.3345 35.5964 16.8937 35.1522 17.794L33.7433 20.6486C33.682 20.7729 33.5635 20.8591 33.4262 20.879L30.276 21.3367C29.2825 21.481 28.4726 22.1638 28.1623 23.1186C27.8521 24.0735 28.1059 25.102 28.8249 25.8029L31.1044 28.0247C31.2037 28.1215 31.2489 28.2608 31.2255 28.3976L30.6873 31.5352C30.5176 32.5246 30.9167 33.5058 31.729 34.0959C32.541 34.6858 33.5977 34.7624 34.4866 34.2953L37.3041 32.8139C37.4268 32.7493 37.5733 32.7493 37.6961 32.8139L40.5137 34.2953C40.9003 34.4985 41.3185 34.5988 41.7345 34.5988C42.2751 34.5988 42.8123 34.4293 43.2712 34.0958C44.0834 33.5056 44.4826 32.5244 44.3128 31.535L43.7747 28.3975C43.7512 28.2606 43.7965 28.1213 43.8958 28.0247L46.1754 25.8026C46.8944 25.1018 47.1482 24.0732 46.838 23.1185C46.5277 22.1637 45.7175 21.481 44.7241 21.3367ZM44.6417 24.2294L42.362 26.4515C41.7449 27.0531 41.4634 27.9193 41.609 28.7689L42.1471 31.9065C42.1856 32.1311 42.0587 32.261 41.9796 32.3186C41.9006 32.3761 41.7377 32.457 41.536 32.3506L38.7183 30.8693C38.3369 30.6688 37.9184 30.5684 37.4999 30.5684C37.0814 30.5684 36.6629 30.6688 36.2815 30.8693L33.464 32.3506C33.2624 32.4568 33.0996 32.376 33.0203 32.3186C32.9412 32.261 32.8144 32.1312 32.8527 31.9065L33.3909 28.7689C33.5367 27.9193 33.2551 27.0531 32.6379 26.4513L30.3583 24.2295C30.1952 24.0705 30.2214 23.8907 30.2517 23.7977C30.2819 23.7047 30.3663 23.5439 30.5917 23.5111L33.7419 23.0533C34.595 22.9292 35.3319 22.3939 35.7133 21.621L37.1222 18.7665C37.2229 18.5621 37.4021 18.5317 37.4998 18.5317C37.5975 18.5317 37.7766 18.5621 37.8774 18.7665L39.2862 21.621C39.6677 22.3939 40.4046 22.9294 41.2577 23.0533L44.408 23.5111C44.6335 23.5439 44.7178 23.7047 44.748 23.7977C44.7785 23.8907 44.8047 24.0705 44.6417 24.2294Z" fill="#424651"/>
        </g>
    </symbol>
    <symbol id="deal" viewBox="0 0 75 75">
    <g>
        <g clip-path="url(#clip0)">
        <path d="M75 25.5425C74.9983 24.4039 74.6634 23.2491 73.9229 22.2973L67.9804 14.6936C66.985 13.4297 65.4705 12.7862 63.957 12.7837C63.0563 12.7837 62.1391 13.0146 61.3288 13.5199L55.5345 17.1249C54.9251 17.5135 53.8803 17.7803 52.8712 17.7734C52.0872 17.7768 51.3296 17.6199 50.8294 17.3728L45.1552 14.6243C44.2399 14.1836 43.2197 14.003 42.1937 14.0013C40.7202 14.0082 39.2279 14.3703 38.0288 15.2013L37.3667 15.6658C36.8375 15.4017 36.0287 14.9993 35.1126 14.5434C34.014 14.0048 32.7221 13.7875 31.4173 13.7833C30.2385 13.7867 29.06 13.9683 28.0253 14.4054L24.1604 16.0545C23.5314 16.3273 22.5309 16.5054 21.5372 16.501C20.5434 16.5053 19.5447 16.3271 18.9157 16.0545L15.0473 14.4045C14.3417 14.1037 13.5875 13.975 12.84 13.9742C11.9792 13.975 11.1236 14.1447 10.3283 14.4668C9.53409 14.7907 8.79683 15.2688 8.20972 15.9249L1.16675 23.8125C0.386138 24.6842 -0.00160633 25.782 5.00127e-06 26.8626C-0.00160633 28.1512 0.549761 29.4439 1.61324 30.35L8.18306 35.955L5.06646 39.2063C4.20733 40.1029 3.7796 41.2654 3.7796 42.4148C3.77799 43.6378 4.26373 44.8727 5.22584 45.7819L5.85806 46.3827C6.45382 46.9478 7.16969 47.3073 7.91881 47.499C7.54307 48.1901 7.3377 48.9479 7.33931 49.7071C7.3377 50.931 7.82345 52.165 8.7838 53.0752L8.78219 53.0744L9.41632 53.6777C10.319 54.5334 11.4891 54.9595 12.6419 54.9587C13.2615 54.9596 13.8819 54.8351 14.4649 54.5914C14.6695 55.4215 15.0921 56.2106 15.7569 56.8412L16.391 57.4446C17.2937 58.3002 18.4619 58.7263 19.6166 58.7256C20.5193 58.7265 21.426 58.4605 22.2066 57.9441C22.435 58.6787 22.8262 59.375 23.4218 59.9408L24.056 60.5442C24.9567 61.3998 26.1268 61.8259 27.2799 61.8252C28.5079 61.8261 29.7481 61.3437 30.664 60.3875L33.4185 57.5111L37.1608 60.9746C38.0565 61.8054 39.2063 62.2188 40.3412 62.2163C41.5881 62.2189 42.846 61.7194 43.7638 60.7368L44.3612 60.0968C44.8768 59.543 45.2134 58.8875 45.4087 58.2032L46.8583 59.5412C47.7557 60.3687 48.9038 60.7803 50.0372 60.7794C51.2857 60.7803 52.5471 60.2808 53.4658 59.2975L54.0598 58.6582C54.7458 57.9253 55.1319 57.0176 55.2511 56.0905C55.6338 56.1885 56.0215 56.255 56.4126 56.255C57.6611 56.255 58.919 55.7564 59.8386 54.7739L60.4344 54.1346C61.267 53.2422 61.6812 52.0978 61.6795 50.9694C61.6795 50.6191 61.6292 50.2707 61.5516 49.9263C62.5871 49.789 63.5911 49.3272 64.3546 48.5073L64.9519 47.8673C65.7846 46.9749 66.1971 45.8304 66.1971 44.7012C66.1987 43.4587 65.6977 42.2049 64.7091 41.2915L63.5918 40.2595L73.6755 29.1105C74.5808 28.1068 74.9984 26.8148 75 25.5425ZM9.08409 45.1267C8.54986 45.1251 8.02735 44.9341 7.6191 44.5472L6.98585 43.9465C6.54771 43.5322 6.33136 42.981 6.3296 42.415C6.33136 41.8841 6.52135 41.3659 6.91261 40.9576L13.2958 34.2965C13.7117 33.8626 14.2666 33.6454 14.8358 33.6447C15.3684 33.6456 15.8892 33.8373 16.3008 34.2251L16.9314 34.8267C16.9314 34.8267 17.5843 35.7921 17.5859 36.3589C17.5843 36.7833 17.4564 37.1966 17.2084 37.5546C17.1872 37.5759 10.319 44.7338 10.319 44.7338C9.95421 44.9919 9.52296 45.1248 9.08409 45.1267ZM14.182 51.7708C13.7671 52.2029 13.213 52.4193 12.6438 52.421C12.1096 52.4202 11.5887 52.2284 11.1788 51.8416L10.5447 51.2389L10.5431 51.238C10.1085 50.8255 9.89019 50.2726 9.89019 49.7065C9.89019 49.1757 10.0819 48.6574 10.4713 48.2492C10.4713 48.2492 18.98 39.392 19.0516 39.3066C19.4583 38.9155 19.9822 38.7135 20.5234 38.7126C21.0576 38.7135 21.5785 38.9043 21.9883 39.2921L22.6225 39.8955C23.0587 40.308 23.2754 40.8602 23.277 41.427C23.2752 41.9578 23.0836 42.4768 22.694 42.8851L14.182 51.7708ZM21.1557 55.5366C20.7416 55.9698 20.1878 56.1864 19.6184 56.188C19.0841 56.1872 18.5632 55.9954 18.1534 55.6077L17.5175 55.005C17.0813 54.5917 16.863 54.0396 16.863 53.4735C16.863 52.9998 17.0241 52.5403 17.3325 52.1577L23.2581 45.973C23.6578 45.6125 24.1588 45.4225 24.6779 45.4225C25.2122 45.4233 25.7331 45.6142 26.1429 46.002L26.7788 46.6053C27.2134 47.0178 27.4317 47.5701 27.4333 48.1359C27.4316 48.6678 27.2382 49.1868 26.8503 49.594L21.1557 55.5366ZM32.4148 54.8839L28.8192 58.6365C28.4049 59.0694 27.8502 59.286 27.281 59.2876C26.7467 59.2868 26.2258 59.095 25.816 58.7073L25.1819 58.1046C24.7472 57.6921 24.529 57.1392 24.5274 56.5731C24.529 56.0413 24.7207 55.5223 25.1104 55.1158L28.7044 51.3633C29.1202 50.9304 29.6751 50.713 30.2444 50.7122C30.777 50.713 31.2995 50.9039 31.7093 51.2925L32.3452 51.8952C32.7799 52.3077 32.9964 52.8599 32.9981 53.4258C32.9961 53.9575 32.8043 54.4765 32.4148 54.8839ZM63.6509 44.7045C63.6501 45.2257 63.4634 45.7362 63.085 46.1418L62.4892 46.7811C62.0734 47.226 61.5091 47.451 60.9314 47.4519C60.4073 47.451 59.8941 47.2668 59.4869 46.8904L49.4476 37.6061L47.7116 39.4648L58.4574 49.4197C58.9049 49.834 59.1298 50.3965 59.1331 50.9709C59.1298 51.4941 58.9448 52.0037 58.5673 52.4095L57.9733 53.0487C57.5574 53.4936 56.9931 53.7177 56.4154 53.7195C55.8913 53.7179 55.3765 53.5329 54.9725 53.1587L44.9306 43.8746L43.1964 45.7333L52.1082 53.9745C52.5377 54.3861 52.7577 54.9341 52.7577 55.4965C52.7577 56.0181 52.5727 56.5285 52.1952 56.9334L51.5994 57.5726C51.1852 58.0175 50.6193 58.2425 50.04 58.2441C49.5141 58.2425 49.0011 58.0575 48.5955 57.6834L39.7015 49.472H39.6999L39.6983 49.4704L37.9675 51.3325L37.9692 51.3341L38.0025 51.3656L42.4571 55.4769C42.8517 55.8825 43.0562 56.4023 43.0578 56.9401C43.0562 57.4591 42.8728 57.9669 42.4953 58.372L41.8995 59.012C41.4837 59.4568 40.9212 59.6801 40.345 59.6818C39.8209 59.6802 39.3078 59.4961 38.9022 59.1204L35.0237 55.529C35.3612 54.8669 35.5496 54.1484 35.5496 53.4274C35.5512 52.2044 35.0654 50.9713 34.1051 50.0603L33.4692 49.4569C32.5685 48.6021 31.4 48.1752 30.247 48.1768C30.1575 48.1768 30.0673 48.1973 29.9795 48.2024C29.9795 48.1812 29.9845 48.1589 29.9845 48.1377C29.9861 46.9147 28.54 44.7689 28.54 44.7689L27.9059 44.1672C27.2318 43.528 26.4092 43.1292 25.5538 42.969C25.7301 42.4696 25.8299 41.9498 25.8299 41.429C25.8299 40.206 25.3458 38.9719 24.3854 38.0619L23.7513 37.4585C22.8486 36.6029 21.6804 36.1759 20.5273 36.1768C20.3927 36.1768 20.2598 36.2041 20.1259 36.2161C20.0893 35.0417 19.6163 33.8682 18.696 32.9939V32.993L18.0636 32.3922C17.1609 31.5357 15.9927 31.1087 14.8396 31.1096C13.6097 31.1087 12.3715 31.5911 11.4555 32.5474L9.94879 34.1197L3.27408 28.4268C2.79434 28.016 2.55484 27.4484 2.55308 26.8655C2.55469 26.3771 2.72095 25.899 3.07545 25.5021L10.1183 17.6146C10.3978 17.301 10.8111 17.0172 11.2953 16.8202C11.7794 16.6233 12.329 16.5152 12.8429 16.516C13.2904 16.516 13.7104 16.597 14.0463 16.7418L17.9129 18.3917C19.0028 18.8511 20.2683 19.0395 21.5401 19.0436C22.8133 19.0393 24.0772 18.8509 25.1673 18.3917L29.0322 16.7426C29.6279 16.4827 30.5269 16.3216 31.4209 16.325C32.4095 16.3189 33.3998 16.5236 33.9741 16.8167C34.3389 16.9982 34.6849 17.1705 35.0061 17.3314L31.0645 20.1022C29.798 20.9928 29.1154 22.4092 29.1172 23.8384C29.1155 24.7844 29.4154 25.7474 30.0257 26.5646L30.024 26.5629L30.5446 27.2625C31.5333 28.5768 33.0749 29.2525 34.6157 29.2559C35.4859 29.2559 36.3722 29.036 37.1622 28.5621L39.5195 27.1465C40.0002 26.8525 40.7262 26.6667 41.4769 26.6701C42.3591 26.665 43.2479 26.9259 43.7823 27.3186L50.3036 31.9939C51.755 33.0337 54.119 34.9623 55.429 36.1759L62.9772 43.1549C63.4241 43.5693 63.6491 44.1293 63.6509 44.7045ZM71.7829 27.414L61.7274 38.533L57.1619 34.3128C55.7319 32.9927 53.3738 31.0676 51.7921 29.9314L45.2725 25.2561C44.1671 24.473 42.8137 24.1345 41.4758 24.1295C40.3371 24.1329 39.19 24.381 38.1998 24.9706L35.8443 26.3862C35.4829 26.6035 35.057 26.7144 34.6144 26.7152C33.8234 26.7179 33.0318 26.3487 32.5904 25.7479L32.0715 25.0491L32.0697 25.0474C31.7936 24.675 31.665 24.2574 31.6631 23.8346C31.6664 23.1954 31.9613 22.575 32.5324 22.1719L39.502 17.2749C40.1047 16.8387 41.1768 16.5327 42.1951 16.5403C42.9025 16.5369 43.5782 16.6792 44.041 16.9077L49.7151 19.6562C50.6824 20.1207 51.7742 20.3106 52.8725 20.3133C54.2838 20.3064 55.7104 19.9997 56.8858 19.2778L62.6819 15.6721C63.0517 15.4412 63.4957 15.3218 63.9586 15.3218C64.741 15.3202 65.525 15.6747 65.969 16.2533L71.9116 23.857C72.2542 24.2925 72.4527 24.9069 72.4527 25.5437C72.4537 26.2557 72.2022 26.9563 71.7829 27.414Z" fill="#424651"/>
        </g>
    </g>
    </symbol>
    <symbol id="headerClock" viewBox="0 0 50 50">
        <g>
            <path d="M25 0C29.4355 0 33.6694 1.20968 37.5 3.42742C41.3306 5.64516 44.3548 8.66935 46.5726 12.5C48.7903 16.3306 50 20.5645 50 25C50 29.5363 48.7903 33.6694 46.5726 37.5C44.3548 41.3306 41.3306 44.4556 37.5 46.6734C33.6694 48.8911 29.4355 50 25 50C20.4637 50 16.3306 48.8911 12.5 46.6734C8.66935 44.4556 5.54435 41.3306 3.32661 37.5C1.10887 33.6694 0 29.5363 0 25C0 20.5645 1.10887 16.3306 3.32661 12.5C5.54435 8.66935 8.66935 5.64516 12.5 3.42742C16.3306 1.20968 20.4637 0 25 0ZM25 45.1613C28.629 45.1613 31.9556 44.254 35.0806 42.4395C38.1048 40.625 40.625 38.2056 42.4395 35.0806C44.254 32.0564 45.1613 28.629 45.1613 25C45.1613 21.371 44.254 18.0444 42.4395 14.9194C40.625 11.8952 38.1048 9.375 35.0806 7.56048C31.9556 5.74597 28.629 4.83871 25 4.83871C21.371 4.83871 17.9435 5.74597 14.9194 7.56048C11.7944 9.375 9.375 11.8952 7.56048 14.9194C5.74597 18.0444 4.83871 21.371 4.83871 25C4.83871 28.629 5.74597 32.0564 7.56048 35.0806C9.375 38.2056 11.7944 40.625 14.9194 42.4395C17.9435 44.254 21.371 45.1613 25 45.1613ZM31.25 34.6774C31.4516 34.879 31.754 34.9798 32.1573 34.879C32.4597 34.879 32.7621 34.6774 32.9637 34.375L34.7782 31.754C34.9798 31.5524 34.9798 31.25 34.9798 30.8468C34.9798 30.5444 34.7782 30.2419 34.5766 30.0403L27.8226 25.2016V10.8871C27.8226 10.5847 27.621 10.2823 27.4194 10.0806C27.2177 9.87903 26.9153 9.67742 26.6129 9.67742H23.3871C22.9839 9.67742 22.6815 9.87903 22.4798 10.0806C22.2782 10.2823 22.1774 10.5847 22.1774 10.8871V27.4194C22.1774 27.8226 22.2782 28.2258 22.6815 28.4274L31.25 34.6774Z" />
        </g>
    </symbol>
    <symbol id="headerPhone" viewBox="0 0 45 45">
        <g>
        <path d="M32.3414 45C30.8888 45 29.4485 44.7432 28.0402 44.2315C21.8355 41.9776 16.0762 38.3065 11.3848 33.6152C6.69337 28.9239 3.02232 23.1646 0.768449 16.9599C0.044169 14.9659 -0.169573 12.9076 0.133375 10.8419C0.417163 8.907 1.16667 7.02859 2.30094 5.40971C3.44022 3.78371 4.95909 2.43131 6.69329 1.49874C8.54261 0.504296 10.5611 0 12.6929 0C13.3559 0 13.929 0.463253 14.0679 1.11151L16.2751 11.4118C16.375 11.8782 16.2317 12.3635 15.8945 12.7008L12.123 16.4722C15.6808 23.5459 21.454 29.319 28.5277 32.8769L32.2991 29.1054C32.6363 28.7681 33.1217 28.625 33.5881 28.7247L43.8884 30.9319C44.5368 31.0709 44.9999 31.6439 44.9999 32.3069C44.9999 34.4387 44.4957 36.4573 43.5011 38.3066C42.5685 40.0408 41.2161 41.5597 39.5901 42.6989C37.9713 43.8332 36.0929 44.5827 34.1579 44.8665C33.5516 44.9555 32.9453 44.9999 32.3414 45ZM11.5694 2.87391C8.75741 3.18432 6.26158 4.65819 4.6042 7.02367C2.74046 9.68357 2.30586 12.9552 3.41184 15.9997C7.74503 27.9283 17.0717 37.255 29.0003 41.5881C32.0448 42.6941 35.3165 42.2596 37.9764 40.3958C40.3419 38.7384 41.8158 36.2426 42.1262 33.4306L33.7469 31.6351L29.8082 35.5739C29.389 35.993 28.7522 36.1043 28.2159 35.8523C19.8499 31.922 13.078 25.1501 9.14772 16.7841C8.89574 16.2478 9.00701 15.6109 9.42614 15.1919L13.3649 11.2531L11.5694 2.87391Z" fill="white"/>
        <path d="M43.5929 23.9053C42.8163 23.9053 42.1867 23.2756 42.1867 22.4991C42.1867 11.6438 33.3553 2.81238 22.4999 2.81238C21.7234 2.81238 21.0938 2.18276 21.0938 1.40619C21.0938 0.629623 21.7234 0 22.4999 0C28.5098 0 34.1598 2.34026 38.4093 6.58977C42.6589 10.8393 44.9991 16.4893 44.9991 22.4991C44.9991 23.2756 44.3696 23.9053 43.5929 23.9053Z" fill="white"/>
        <path d="M37.9681 23.9053C37.1916 23.9053 36.5619 23.2757 36.5619 22.4991C36.5619 14.7454 30.2537 8.43717 22.4999 8.43717C21.7234 8.43717 21.0938 7.80755 21.0938 7.03098C21.0938 6.25441 21.7234 5.62479 22.4999 5.62479C31.8045 5.62479 39.3743 13.1946 39.3743 22.4991C39.3743 23.2757 38.7448 23.9053 37.9681 23.9053Z" fill="white"/>
        <path d="M32.3433 23.9053C31.5668 23.9053 30.9371 23.2757 30.9371 22.4991C30.9371 17.8468 27.1523 14.0619 22.4999 14.0619C21.7234 14.0619 21.0938 13.4323 21.0938 12.6557C21.0938 11.8792 21.7234 11.2495 22.4999 11.2495C28.703 11.2495 33.7495 16.296 33.7495 22.4991C33.7495 23.2757 33.12 23.9053 32.3433 23.9053Z" fill="white"/>
        </g>
    </symbol>
    

</svg>
