<svg xmlns="http://www.w3.org/2000/svg"> 
    <symbol id="bascket" viewBox="0 0 60 60">
        <g>
            <path d="M30 29.9986C30.6468 29.9986 31.1719 29.4736 31.1719 28.8268C31.1719 28.1799 30.6468 27.6549 30 27.6549C29.3532 27.6549 28.8281 28.1799 28.8281 28.8268C28.8281 29.4736 29.3532 29.9986 30 29.9986Z"  fill-opacity="0.77"/>
            <path d="M55.3124 21.4048H48.3823L37.7219 6.73852C36.7643 5.09744 34.6549 4.51334 32.9795 5.44122C31.2812 6.38467 30.6706 8.5238 31.6145 10.2226C31.6415 10.2706 31.6712 10.3169 31.7046 10.3608L40.0661 21.4048H19.9337L28.2952 10.3608C28.3282 10.3169 28.3584 10.2706 28.3854 10.2226C29.327 8.52792 28.7232 6.38696 27.019 5.44031C25.3472 4.51425 23.2379 5.0979 22.2784 6.73761L11.6176 21.4048H4.68749C2.10296 21.4048 0 23.5078 0 26.0923C0 28.1307 1.32293 29.9055 3.18649 30.5335C3.38516 30.6873 3.63326 30.7798 3.90334 30.7798C3.95736 30.7798 4.00817 30.783 4.06127 30.7903C4.56573 30.8581 4.96535 31.2408 5.0569 31.7416L9.04356 53.6749C9.34797 55.3471 10.8027 56.5611 12.5029 56.5611H47.497C49.1971 56.5611 50.6519 55.3471 50.9563 53.6744L54.943 31.742C55.0345 31.2408 55.4346 30.8581 55.9409 30.7903C55.9922 30.783 56.043 30.7798 56.0965 30.7798C56.3684 30.7798 56.6184 30.6864 56.8171 30.5308C58.682 29.8986 59.9999 28.1271 59.9999 26.0923C59.9999 23.5078 57.8969 21.4048 55.3124 21.4048ZM33.6314 9.02277C33.3636 8.46841 33.5714 7.79321 34.1161 7.49109C34.6833 7.1766 35.3983 7.37939 35.711 7.9429C35.7339 7.98501 35.76 8.0253 35.7879 8.06375L45.4847 21.4048H43.0054L33.6314 9.02277ZM24.212 8.06421C24.2399 8.02576 24.2651 7.98593 24.2884 7.94473C24.602 7.38077 25.3175 7.17752 25.8824 7.49017C26.428 7.79321 26.6368 8.4675 26.3685 9.02277L16.9944 21.4048H14.5152L24.212 8.06421ZM55.3124 28.4361H34.6874C34.0401 28.4361 33.5156 28.9607 33.5156 29.6079C33.5156 30.2552 34.0401 30.7679 34.6874 30.7679H52.781C52.7196 30.9428 52.6711 31.1241 52.6372 31.3108L48.6501 53.2551C48.5489 53.8126 48.0637 54.2173 47.497 54.2173H12.5029C11.9357 54.2173 11.4509 53.8126 11.3493 53.2556L7.36266 31.3223C7.32878 31.1355 7.28026 30.9542 7.21892 30.7798H25.3124C25.9597 30.7798 26.4843 30.2552 26.4843 29.6079C26.4843 28.9607 25.9597 28.4361 25.3124 28.4361H4.68749C3.38424 28.4361 2.34374 27.3741 2.34374 26.0923C2.34374 24.8 3.39523 23.7486 4.68749 23.7486H55.3124C56.6047 23.7486 57.6561 24.8 57.6561 26.0923C57.6561 27.3937 56.5914 28.4361 55.3124 28.4361Z"  fill-opacity="0.77"/>
            <path d="M29.9999 33.5143C28.0612 33.5143 26.4843 35.0913 26.4843 37.0299V46.4049C26.4843 48.3435 28.0612 49.9205 29.9999 49.9205C31.9385 49.9205 33.5155 48.3435 33.5155 46.4049V37.0299C33.5155 35.0876 31.9422 33.5143 29.9999 33.5143ZM31.1717 46.4049C31.1717 47.0513 30.6462 47.5768 29.9999 47.5768C29.3535 47.5768 28.828 47.0513 28.828 46.4049V37.0299C28.828 36.3835 29.3535 35.858 29.9999 35.858C30.6467 35.858 31.1717 36.3831 31.1717 37.0299V46.4049Z"  fill-opacity="0.77"/>
            <path d="M41.7186 49.9205C43.6572 49.9205 45.2342 48.3435 45.2342 46.4049V37.0299C45.2342 35.0876 43.6609 33.5143 41.7186 33.5143C39.78 33.5143 38.203 35.0913 38.203 37.0299V46.4049C38.203 48.3435 39.78 49.9205 41.7186 49.9205ZM40.5467 37.0299C40.5467 36.3835 41.0723 35.858 41.7186 35.858C42.3654 35.858 42.8905 36.3831 42.8905 37.0299V46.4049C42.8905 47.0513 42.365 47.5768 41.7186 47.5768C41.0723 47.5768 40.5467 47.0513 40.5467 46.4049V37.0299Z"  fill-opacity="0.77"/>
            <path d="M18.2812 33.5143C16.3426 33.5143 14.7656 35.0913 14.7656 37.0299V46.4049C14.7656 48.3435 16.3426 49.9205 18.2812 49.9205C20.2199 49.9205 21.7969 48.3435 21.7969 46.4049V37.0299C21.7969 35.0876 20.2235 33.5143 18.2812 33.5143ZM19.4531 46.4049C19.4531 47.0513 18.9276 47.5768 18.2812 47.5768C17.6349 47.5768 17.1094 47.0513 17.1094 46.4049V37.0299C17.1094 36.3835 17.6349 35.858 18.2812 35.858C18.9281 35.858 19.4531 36.3826 19.4531 37.0299V46.4049Z"  fill-opacity="0.77"/>

        </g>
    </symbol>
    <symbol id="logo" viewBox="0 0 350 76">
        <g>
            <path d="M70.4403 47.9505C69.9275 47.935 69.7076 47.9163 69.4374 47.8933C69.1975 47.873 68.9192 47.8491 68.3825 47.8216C68.0998 47.8118 67.8171 48.0562 67.802 48.3807C67.7874 48.7051 68.0235 48.9808 68.3294 48.9966C68.8477 49.023 69.1168 49.046 69.3486 49.0658C69.6345 49.0899 69.8668 49.11 70.4089 49.1261C70.4143 49.1264 70.4197 49.1264 70.4251 49.1264C70.7241 49.1264 70.9705 48.874 70.9791 48.555C70.9878 48.2302 70.7463 47.9597 70.4403 47.9505Z"  />
            <path d="M36.6805 45.8574C36.7054 45.8608 36.7303 45.8626 36.7547 45.8626C37.0282 45.8626 37.2664 45.6478 37.3038 45.3526C37.3444 45.0304 37.1311 44.7346 36.8278 44.6915C25.8808 43.1383 7.80903 36.4682 0.915947 30.1964C0.684166 29.985 0.332704 30.0134 0.133957 30.2596C-0.0652973 30.5062 -0.0387617 30.8775 0.193527 31.0888C7.22744 37.4885 25.583 44.2826 36.6805 45.8574Z"  />
            <path d="M42.9643 55.0983C44.2196 55.299 45.405 55.4885 46.8059 55.6565C46.827 55.6591 46.8482 55.6602 46.8687 55.6602C47.1471 55.6602 47.387 55.4385 47.4195 55.1382C47.4536 54.8154 47.2348 54.5242 46.9305 54.4878C45.5501 54.3221 44.3745 54.1343 43.1295 53.9353C42.5203 53.8376 41.8862 53.7363 41.1903 53.6312C40.8892 53.5889 40.6065 53.8089 40.5632 54.1305C40.5199 54.4521 40.7311 54.7499 41.0343 54.7959C41.7264 54.9004 42.3578 55.0012 42.9643 55.0983Z"  />
            <path d="M41.213 38.4649C40.9011 38.4379 40.6444 38.6923 40.6265 39.0168C40.6081 39.341 40.8415 39.6195 41.1469 39.6388C41.8612 39.6841 42.6242 39.7396 43.3997 39.7958C44.9706 39.9101 46.5952 40.0282 47.9891 40.0735C47.9945 40.0738 48.0005 40.0738 48.0064 40.0738C48.3048 40.0738 48.5507 39.8223 48.5604 39.5038C48.5696 39.179 48.3292 38.908 48.0227 38.8979C46.6504 38.8531 45.0362 38.7359 43.4755 38.6225C42.6962 38.5657 41.9305 38.5102 41.213 38.4649Z"  />
            <path d="M69.5863 57.3091C69.7802 57.3272 69.9578 57.3442 70.4067 57.3594C70.4127 57.3597 70.4192 57.3597 70.4251 57.3597C70.723 57.3597 70.9694 57.1087 70.9786 56.7902C70.9889 56.4658 70.7484 56.1941 70.4425 56.1838C70.0277 56.1697 69.8636 56.1545 69.6849 56.1375C69.4926 56.1191 69.2842 56.0994 68.7719 56.0784C68.4751 56.0692 68.2081 56.3182 68.1962 56.6429C68.1843 56.9674 68.4226 57.2408 68.7285 57.2534C69.21 57.2735 69.406 57.2919 69.5863 57.3091Z"  />
            <path d="M0.193527 39.3224C6.77146 45.3077 23.1358 51.9322 36.6718 54.0896C36.6995 54.0942 36.7276 54.0962 36.7547 54.0962C37.0249 54.0962 37.261 53.8871 37.3027 53.5954C37.3482 53.2743 37.1392 52.9748 36.8365 52.9266C23.4743 50.7967 7.36008 44.2935 0.915947 38.43C0.684166 38.2183 0.332704 38.2468 0.133957 38.4932C-0.0652973 38.7398 -0.0387617 39.1111 0.193527 39.3224Z"  />
            <path d="M41.0343 62.4415C43.4907 62.8125 45.9184 63.1379 48.2502 63.4081C48.2708 63.4104 48.2908 63.4115 48.3108 63.4115C48.5903 63.4115 48.8307 63.1884 48.8616 62.8872C48.8946 62.5644 48.6747 62.2741 48.3704 62.2388C46.0505 61.97 43.6353 61.6464 41.1903 61.2768C40.8892 61.2363 40.6065 61.4548 40.5632 61.7762C40.5199 62.0978 40.7311 62.3955 41.0343 62.4415Z"  />
            <path d="M70.4403 63.829C68.4772 63.7702 67.0558 63.6613 64.7006 63.4813C64.021 63.4293 63.2672 63.3716 62.4051 63.3078C62.1073 63.2875 61.8344 63.5295 61.8132 63.8537C61.7921 64.1776 62.0228 64.4585 62.3282 64.4812C63.1892 64.5449 63.942 64.6024 64.6205 64.6543C66.9908 64.8358 68.4215 64.9452 70.4089 65.0046C70.4143 65.0049 70.4197 65.0049 70.4251 65.0049C70.724 65.0049 70.9704 64.7525 70.9791 64.4335C70.9878 64.1087 70.7462 63.8382 70.4403 63.829Z"  />
            <path d="M0.193527 46.9675C7.14133 53.289 21.4566 59.0847 36.6642 61.7334C36.6946 61.7386 36.7249 61.7412 36.7547 61.7412C37.0217 61.7412 37.2567 61.5367 37.3011 61.2484C37.3509 60.928 37.1462 60.6253 36.844 60.5727C21.8226 57.9565 7.72021 52.2658 0.915947 46.075C0.684166 45.8633 0.332704 45.8918 0.133957 46.1381C-0.0652973 46.3848 -0.0387616 46.7561 0.193527 46.9675Z"  />
            <path d="M70.4263 74.1029C70.7322 74.102 70.9803 73.8379 70.9792 73.5131C70.9781 73.1889 70.7301 72.9267 70.4247 72.9267C70.4241 72.9267 70.4236 72.9267 70.423 72.9267C70.292 72.927 70.1637 72.9273 70.0321 72.9273C38.5212 72.9273 8.30399 61.5848 0.895391 55.4666C0.653321 55.2667 0.305108 55.3127 0.117192 55.5694C-0.0706901 55.8256 -0.0273666 56.1952 0.214128 56.3947C7.72782 62.5996 38.2705 74.1035 70.0348 74.1035C70.1653 74.1035 70.2958 74.1032 70.4263 74.1029Z"  />
            <path d="M65.6224 29.3728C65.6224 28.8846 65.6224 27.9672 59.1234 27.6438C58.1308 26.6675 56.8388 26.1323 55.4746 26.1323C54.1105 26.1323 52.824 26.6675 51.8259 27.6438C45.3324 27.9672 45.3324 28.8846 45.3324 29.3728C45.3324 29.8844 45.3324 30.6489 50.7889 31.043C52.2196 31.1488 53.8388 31.2018 55.4746 31.2018C57.116 31.2018 58.7352 31.1488 60.1603 31.043C65.6224 30.6489 65.6224 29.8844 65.6224 29.3728Z"  />
            <path d="M60.0882 31.9959C57.2879 32.1958 53.6669 32.1958 50.8665 31.9959C50.6225 31.9782 50.373 32.1488 50.2954 32.4076C50.1567 32.9016 50.0847 33.425 50.0847 33.9719C50.0847 37.1241 52.5024 39.6883 55.4746 39.6883C58.4469 39.6883 60.8646 37.1241 60.8646 33.9719C60.8646 33.425 60.7981 32.9016 60.6539 32.4076C60.5818 32.1488 60.3322 31.9782 60.0882 31.9959Z"  />
            <path d="M0.0243869 20.1551C0.0280085 20.1688 0.0295993 20.1829 0.0342363 20.1964C0.0363686 20.2029 0.0366055 20.2097 0.0389409 20.2161C3.6267 29.7316 26.0128 37.3592 36.6375 39.1529C36.6707 39.1588 36.6985 39.1588 36.7262 39.1588C36.9924 39.1588 37.2308 38.953 37.2751 38.6648C37.3195 38.3414 37.1144 38.0414 36.8149 37.9944C27.9869 36.5006 12.5878 31.3194 5.05185 24.8856C3.43263 23.4977 2.17384 22.0569 1.42526 20.5866H42.8259V24.6915C42.8259 24.7621 42.837 24.8209 42.8537 24.8797C42.9257 25.1208 43.142 25.2914 43.3916 25.2914H70.4134C70.724 25.2914 70.9791 25.0209 70.9791 24.6915V17.3462C70.9569 17.3521 70.9347 17.3521 70.9125 17.3521H59.5005V24.0975H55.214V20.2161C55.214 18.4047 53.8221 16.9286 52.1142 16.9286H51.5541C49.8462 16.9286 48.4544 18.4047 48.4544 20.2161V24.0975H43.9516V15.5819C43.9516 14.8703 44.0348 14.1704 44.2123 13.5059C45.0829 10.0067 48.1161 7.49549 51.5874 7.38376C53.1456 7.44255 54.6484 7.91305 55.9404 8.75403C56.3674 9.04219 56.7611 9.35388 57.1104 9.68321C58.6465 11.1652 59.5005 13.1177 59.5005 15.182V16.1758H70.9125C70.9347 16.1758 70.9569 16.1758 70.9791 16.1817V15.0408V14.882V9.66558C70.9791 9.50678 70.9181 9.34802 70.8072 9.23629C70.5909 9.01865 70.3636 8.77756 70.1196 8.5129C68.8331 7.13676 66.8923 5.06074 62.75 2.79658C58.9737 0.732326 54.6096 1.44981 50.8111 2.46726C50.8166 2.47312 50.8277 2.47312 50.8332 2.47899C50.8832 2.50252 50.9275 2.52606 50.9774 2.54955C51.0107 2.56132 51.0384 2.57899 51.0662 2.60249C51.0717 2.60839 51.0828 2.61425 51.0939 2.62016C51.1216 2.63779 51.1493 2.66129 51.1715 2.68485C51.1785 2.69227 51.1843 2.70348 51.1912 2.71164C51.1447 2.65772 51.0892 2.61079 51.0233 2.57719C50.5928 2.35807 50.1401 2.13871 49.6565 1.9061C49.1301 1.65684 48.5756 1.40126 47.9907 1.14745C42.7336 -1.16907 36.9062 0.460561 30.7361 2.18521C29.1283 2.63461 27.4664 3.09923 25.8077 3.49266C25.1087 3.65951 24.4766 3.79718 23.8767 3.9135C23.8605 3.90781 23.8442 3.90205 23.828 3.89633C20.0333 2.53733 15.9216 2.43143 11.6077 3.57142C11.0971 3.40082 10.5899 3.20969 10.0964 2.99241C9.91386 2.91376 9.7319 2.83535 9.55319 2.76415C6.37985 1.47822 3.84877 1.0455 0.5265 1.22667C0.220527 1.24306 -0.0144688 1.5196 0.0006944 1.8438C0.0163653 2.16857 0.274682 2.42069 0.582821 2.40115C3.73992 2.23147 6.14214 2.64065 9.16007 3.86424C9.33333 3.93287 9.50554 4.00725 9.6745 4.08018C9.70669 4.09435 9.74026 4.10629 9.77259 4.12032C9.73823 4.13244 9.70378 4.14467 9.67101 4.15509C5.82263 5.49006 2.54541 8.03064 0.770939 9.40091C0.571313 9.55385 0.393855 9.69497 0.233017 9.81851C0.0888307 9.93024 0.00015289 10.1067 0.00015289 10.2949V19.9985C0.00015289 20.0096 0.00455295 20.0197 0.00512834 20.0306C0.00715913 20.0726 0.0139284 20.1138 0.0243869 20.1551ZM49.5856 20.2161C49.5856 19.0634 50.4673 18.1283 51.5541 18.1283H52.1142C53.2011 18.1283 54.0883 19.0634 54.0883 20.2161V24.0975H49.5856V20.2161ZM51.3212 2.99061C51.3262 3.02199 51.3301 3.05443 51.3311 3.08983C51.3297 3.04446 51.3237 3.00001 51.3127 2.95651C51.3151 2.96789 51.3191 2.97923 51.3212 2.99061ZM51.331 3.16227C51.3299 3.18185 51.3261 3.19856 51.3212 3.21411C51.3174 3.23849 51.3096 3.26054 51.3021 3.28319C51.3141 3.24301 51.3274 3.20308 51.331 3.16227ZM51.2491 2.79068C51.2677 2.82019 51.2801 2.85326 51.2909 2.88408C51.2702 2.83118 51.2437 2.7809 51.2091 2.73602C51.2227 2.75415 51.2377 2.76945 51.2491 2.79068ZM51.2341 3.43103C51.2268 3.44354 51.2205 3.45623 51.2103 3.46704C51.1993 3.48464 51.1882 3.5023 51.1715 3.51994C51.1708 3.52075 51.1703 3.52078 51.1696 3.52156C51.1946 3.49531 51.2138 3.46269 51.2341 3.43103ZM51.0965 3.58202C51.088 3.58835 51.0812 3.59619 51.0717 3.60227C51.0624 3.60962 51.0501 3.61068 51.0404 3.61704C51.0596 3.60612 51.0786 3.59531 51.0965 3.58202ZM23.828 3.92573C23.8356 3.92304 23.8432 3.9217 23.8508 3.92032C23.8394 3.92205 23.8287 3.92732 23.8173 3.92976C23.8211 3.92894 23.8241 3.92643 23.828 3.92573ZM23.9221 5.08953C23.9231 5.08953 23.9242 5.08953 23.9253 5.08953C23.9329 5.09211 23.9925 5.08639 24.0271 5.08006C24.6564 4.95886 25.3187 4.81501 26.0503 4.64042C27.729 4.24212 29.4012 3.77463 31.0188 3.32266C37.0026 1.64939 42.654 0.0705997 47.5678 2.23461C48.1445 2.485 48.6882 2.73542 49.2011 2.97863C49.6743 3.20637 50.1195 3.4223 50.5435 3.63796C50.6702 3.70262 50.8069 3.70555 50.932 3.6681C50.9283 3.66902 50.9257 3.67205 50.922 3.67283C50.922 3.67873 50.922 3.67873 50.9164 3.67283C50.8998 3.67873 50.8832 3.6846 50.8665 3.6846C50.8665 3.6846 50.861 3.69046 50.8554 3.69046C50.2399 3.86103 49.6133 4.04336 48.9922 4.23742C48.1327 4.50205 47.2677 4.78434 46.3971 5.06664C42.2437 6.41928 37.9961 7.80131 33.693 7.80131C31.1311 7.80131 28.5414 7.30729 25.9462 6.03112L25.7522 5.93112C25.0756 5.59006 24.4047 5.296 23.7504 5.06074C23.7413 5.05741 23.7346 5.05031 23.7257 5.0465C23.7891 5.07197 23.8551 5.08953 23.9221 5.08953ZM0.898473 12.9413H4.23669V10.883C4.23669 10.5595 4.48624 10.2949 4.79678 10.2949C5.10177 10.2949 5.35129 10.5595 5.35129 10.883V12.9413H8.12944V10.883C8.12944 10.5595 8.37896 10.2949 8.6895 10.2949C8.99449 10.2949 9.24404 10.5595 9.24404 10.883V12.9413H12.0222V11.03C12.0222 10.7065 12.2773 10.4419 12.5823 10.4419C12.8872 10.4419 13.1368 10.7065 13.1368 11.03V12.9413H15.9205V11.03C15.9205 10.7065 16.17 10.4419 16.475 10.4419C16.78 10.4419 17.0295 10.7065 17.0295 11.03V12.9413H19.8132V11.03C19.8132 10.7065 20.0628 10.4419 20.3678 10.4419C20.6728 10.4419 20.9223 10.7065 20.9223 11.03V12.9413H23.706V11.177C23.706 10.8536 23.9555 10.5889 24.2605 10.5889C24.5655 10.5889 24.8151 10.8536 24.8151 11.177V12.9413H27.5988V11.177C27.5988 10.8536 27.8483 10.5889 28.1533 10.5889C28.4583 10.5889 28.7078 10.8536 28.7078 11.177V12.9413H31.4915V11.177C31.4915 10.8536 31.741 10.5889 32.046 10.5889C32.351 10.5889 32.6005 10.8536 32.6005 11.177V12.9413H35.3842V11.177C35.3842 10.8536 35.6338 10.5889 35.9388 10.5889C36.2437 10.5889 36.4988 10.8536 36.4988 11.177V12.9413H39.8315V11.177C39.8315 10.8536 40.0811 10.5889 40.3916 10.5889C40.6966 10.5889 40.9461 10.8536 40.9461 11.177V12.9413H43.1898C43.1665 13.0251 43.1421 13.1065 43.1199 13.1942C43.0589 13.4353 43.0089 13.6882 42.9646 13.9469C42.9547 14.0031 42.9514 14.061 42.9426 14.1175H40.9461V19.4104H39.9258H39.8315V14.1175H36.4988V19.4104H35.4896H35.3842V14.1175H32.6005V19.4104H31.608H31.4915V14.1175H28.7078V19.4104H27.7263H27.5988V14.1175H24.8151V19.4104H23.8446H23.706V14.1175H20.9223V19.4104H19.963H19.8132V14.1175H17.0295V19.4104H16.0813H15.9205V14.1175H13.1368V19.4104H12.1997H12.0222V14.1175H9.24404V19.4104H8.31797H8.12944V14.1175H5.35129V19.4104H4.43631H4.23669V14.1175H0.898473C0.593482 14.1175 0.343932 13.8529 0.343932 13.5294C0.343932 13.206 0.593482 12.9413 0.898473 12.9413Z"  />
            <path d="M36.2191 30.8209C35.9126 30.8209 35.6646 31.0842 35.6646 31.409V37.0674C35.6646 37.3922 35.9126 37.6555 36.2191 37.6555H38.4155V67.6587C38.4155 67.9835 38.6635 68.2468 38.97 68.2468C39.2766 68.2468 39.5245 67.9835 39.5245 67.6587V44.649L39.5266 44.6516L43.3916 49.5799C43.8408 50.1503 44.5283 50.4738 45.2492 50.4738C45.3602 50.4738 45.4711 50.4679 45.5875 50.4502C46.1088 50.3797 46.6466 50.0856 47.1013 49.6152L49.1697 47.4157V55.8255C49.1697 56.5838 49.626 57.2284 50.2636 57.4765C50.2615 57.4972 50.2522 57.5151 50.2522 57.5363V69.2866C50.2522 70.159 50.9237 70.8685 51.749 70.8685H53.2019C54.0277 70.8685 54.6992 70.159 54.6992 69.2866V57.5898H56.2577V69.2866C56.2577 70.159 56.9265 70.8685 57.7491 70.8685H59.2074C60.03 70.8685 60.6993 70.159 60.6993 69.2866V57.5481C60.6993 57.5231 60.6888 57.5018 60.6859 57.4776C61.324 57.2303 61.7851 56.585 61.7851 55.8255V48.2285C62.3083 48.8689 62.7439 49.4255 62.8156 49.5634C63.2786 50.8235 63.1817 54.9373 63.1059 56.4161C63.1048 56.4351 63.1048 56.4604 63.1053 56.4793C63.1275 57.0393 63.3571 57.5579 63.7508 57.9392C64.1245 58.301 64.6005 58.4969 65.1009 58.4969C65.1339 58.4969 65.1675 58.496 65.2005 58.4943C65.7323 58.4668 66.2223 58.2195 66.5814 57.7985C66.9399 57.3778 67.1229 56.836 67.0969 56.272C67.0969 56.272 66.8365 50.7419 66.7531 48.8984C66.7363 48.525 66.3669 47.5042 66.1449 47.2179C65.0516 45.8088 61.7391 41.6097 61.7391 41.6097L61.6734 41.668C61.4344 41.0046 60.8251 40.5349 60.1215 40.5349H50.8333C50.3231 40.5349 49.8629 40.7819 49.5579 41.1642C49.4692 41.1818 45.3602 45.4514 45.3602 45.4514L42.0108 41.1877C41.6338 40.6996 41.0681 40.4232 40.4692 40.4232C40.131 40.4232 39.8094 40.5114 39.5266 40.6701C39.5258 40.6706 39.5253 40.6712 39.5245 40.6716V37.6555H41.5542C41.8607 37.6555 42.1087 37.3922 42.1087 37.0674V31.3205C42.1087 30.9957 41.8607 30.7324 41.5542 30.7324C41.2477 30.7324 40.9997 30.9957 40.9997 31.3205V36.4793H39.4411V31.3205C39.4411 30.9957 39.1932 30.7324 38.8866 30.7324C38.5801 30.7324 38.3321 30.9957 38.3321 31.3205V36.4793H36.7736V31.409C36.7736 31.0842 36.5256 30.8209 36.2191 30.8209Z"  />
            <path d="M70.4284 39.2754L63.1806 39.2544C63.18 39.2544 63.1795 39.2544 63.179 39.2544C62.8736 39.2544 62.6255 39.5166 62.6245 39.8408C62.6234 40.1656 62.8714 40.4298 63.1773 40.4306L70.4251 40.4516C70.4257 40.4516 70.4262 40.4516 70.4268 40.4516C70.7322 40.4516 70.9802 40.1894 70.9813 39.8652C70.9824 39.5404 70.7344 39.2762 70.4284 39.2754Z"  />
            <path d="M111.36 29.6028L113.479 28.0616V26.107H103.994V28.0616L106.063 29.6028V32.1213C99.087 32.1964 94 35.9678 94 45.3526C94 48.7731 94 52.2814 94 55.7772C94 65.1494 99.087 68.5073 106.063 68.5073V71.3014L103.604 73.1308V75.0854C106.842 75.0854 110.58 75.0854 113.818 75.0854V73.1308L111.36 71.3014V68.5073C118.336 68.5073 123.413 65.1494 123.413 55.7772C123.413 52.2814 123.413 48.7731 123.413 45.3526C123.413 36.3939 118.726 32.3343 111.36 32.1213V29.6028ZM106.063 64.3099C101.765 64.3099 99.8066 60.8141 99.8066 55.7772C99.8066 52.2814 99.8066 48.7731 99.8066 45.3526C99.8066 40.2405 101.765 36.3938 106.063 36.3187V64.3099ZM117.606 45.3526C117.606 48.7731 117.606 52.2814 117.606 55.7772C117.606 60.8141 115.657 64.3099 111.36 64.3099V36.3187C114.818 36.3187 117.606 38.6367 117.606 45.3526ZM147.689 75.0854V65.2246H145.35L143.561 71.101H135.246V70.7501C136.135 70.3993 136.365 69.8355 136.365 68.783V55.1507H140.942L142.332 58.3583H143.901V47.7332H142.332L140.942 51.1538H136.365V34.8527H142.951L144.4 40.8043H147.019V30.9309H129.049V32.6099L130.898 34.3641V71.2388L128.72 73.1934V75.0854H147.689ZM173.194 41.2178C173.194 33.4494 168.616 30.9309 163.209 30.9309H152.995V32.8229L154.834 34.5771V71.2388L152.656 73.1934V75.0854H162.2V73.1934L160.141 71.2388V59.06H163.1C168.616 59.06 173.194 57.0302 173.194 49.0613V41.2178ZM163.259 34.9905C166.607 34.9905 167.727 37.3085 167.727 41.2178V49.0613C167.727 52.9706 166.498 55.2885 163.209 55.2885H160.141V34.9905H163.259ZM183.747 43.9492L183.578 35.9678C183.687 35.9678 183.637 35.9678 183.747 35.9678C185.526 48.4223 187.035 60.2503 188.605 72.7799C188.764 74.0329 189.274 74.5967 190.384 74.5967H194.791L200.098 35.4792C200.158 35.4792 200.268 35.4792 200.318 35.4792C200.158 41.7816 200.158 41.7064 200.158 41.6438V71.2388L198.029 73.1934V75.0854H207.683V73.1934L205.565 71.2388V34.5771L207.464 32.8229V30.9309C204.505 30.9309 202.886 31.0061 199.928 31.0061C197.979 31.0061 197.309 31.2191 196.92 33.6624L192.672 66.7532C192.622 66.7532 192.622 66.7532 192.562 66.7532C191.563 54.4491 190.553 46.3925 188.764 34.0132C188.095 30.5175 186.926 30.9309 183.018 30.9309H178.111V32.8229L180.01 34.5771V71.3014L178.001 73.0556V75.0854H185.806V73.0556L183.747 71.3014V43.9492ZM231.849 75.0854V65.2246H229.511L227.722 71.101H219.407V70.7501C220.296 70.3993 220.526 69.8355 220.526 68.783V55.1507H225.103L226.492 58.3583H228.061V47.7332H226.492L225.103 51.1538H220.526V34.8527H227.112L228.561 40.8043H231.18V30.9309H213.21V32.6099L215.049 34.3641V71.2388L212.88 73.1934V75.0854H231.849ZM257.354 41.2178C257.354 33.4494 252.777 30.9309 247.37 30.9309H237.156V32.8229L238.995 34.5771V71.2388L236.816 73.1934V75.0854H246.361V73.1934L244.302 71.2388V59.06H247.26C252.777 59.06 257.354 57.0302 257.354 49.0613V41.2178ZM247.42 34.9905C250.768 34.9905 251.888 37.3085 251.888 41.2178V49.0613C251.888 52.9706 250.658 55.2885 247.37 55.2885H244.302V34.9905H247.42ZM297.541 26.0318C295.422 26.0318 292.963 25.6935 291.174 27.2222C286.097 31.7078 288.166 47.1693 281.08 47.1693V29.891L283.199 28.0616V26.0318H273.315V28.0616L275.444 29.891C275.444 43.5984 275.444 57.2432 275.444 70.9631L272.985 73.0556V75.0854C276.163 75.0854 280.351 75.0854 283.589 75.0854V73.0556L281.08 70.9631C281.08 64.3099 281.08 57.7318 281.08 51.0911H282.749C286.267 51.0911 287.547 54.5869 288.276 58.9222L289.895 68.6451C290.565 72.5669 291.794 75.5114 295.362 75.5114C296.371 75.5114 297.99 75.361 299.1 74.5967V71.8653C297.371 72.3539 296.202 70.0485 295.812 67.743L294.083 57.5188C293.303 53.0457 291.734 48.7105 288.836 48.3597V48.2218C291.404 47.1693 293.133 35.7674 294.363 32.1213C295.082 29.9536 295.642 28.7007 297.541 28.7633V26.0318ZM323.765 41.9946C323.765 34.8527 319.748 30.2418 313.561 30.2418C307.365 30.2418 303.397 34.9279 303.397 41.9946C303.397 49.337 303.397 56.6167 303.397 63.9591C303.397 71.0258 307.365 75.7119 313.561 75.7119C319.748 75.7119 323.765 71.1009 323.765 63.9591V41.9946ZM308.874 41.9946C308.874 37.0955 310.323 34.6397 313.561 34.6397C316.789 34.6397 318.299 37.935 318.299 41.9946C318.299 49.337 318.299 56.6167 318.299 63.9591C318.299 67.9435 316.789 71.3014 313.561 71.3014C310.323 71.3014 308.874 68.783 308.874 63.9591V41.9946ZM345.703 35.0657L347.492 42.1324H350L349.78 30.9309C342.914 30.9309 336.048 30.9309 329.132 30.9309L328.962 42.1324H331.471L333.15 35.0657H336.718C336.718 47.0315 336.718 58.9221 336.718 70.8128L334.599 72.8426V75.0854C337.497 75.0854 341.405 75.0854 344.303 75.0854V72.8426L342.245 70.8128C342.245 58.9221 342.245 47.0315 342.245 35.0657H345.703Z"  />
        </g>
    </symbol>
    <symbol id="close" viewBox="0 0 50 50">
        <g>
            <path d="M25 0C11.1928 0 0 11.1928 0 25C0.0155242 38.8007 11.1993 49.9845 25 50C38.8072 50 50 38.8072 50 25C50 11.1928 38.8072 0 25 0ZM25 48.3871C12.0837 48.3871 1.6129 37.9163 1.6129 25C1.62762 12.0897 12.0897 1.62762 25 1.6129C37.9163 1.6129 48.3871 12.0837 48.3871 25C48.3871 37.9163 37.9163 48.3871 25 48.3871Z" />
            <path d="M40.3226 24.1937H25.8065V9.67755C25.8065 9.23218 25.4454 8.87109 25 8.87109C24.5546 8.87109 24.1936 9.23218 24.1936 9.67755V24.1937H9.67742C9.23206 24.1937 8.87097 24.5548 8.87097 25.0001C8.87097 25.4455 9.23206 25.8066 9.67742 25.8066H24.1936V40.3227C24.1936 40.7681 24.5546 41.1292 25 41.1292C25.4454 41.1292 25.8065 40.7681 25.8065 40.3227V25.8066H40.3226C40.7679 25.8066 41.129 25.4455 41.129 25.0001C41.129 24.5548 40.7679 24.1937 40.3226 24.1937Z" />
        </g>
    </symbol>
    <symbol id="plus" viewBox="0 0 50 50">
        <g>
            <path d="M40.3226 24.1937H25.8065V9.67755C25.8065 9.23218 25.4454 8.87109 25 8.87109C24.5546 8.87109 24.1936 9.23218 24.1936 9.67755V24.1937H9.67742C9.23206 24.1937 8.87097 24.5548 8.87097 25.0001C8.87097 25.4455 9.23206 25.8066 9.67742 25.8066H24.1936V40.3227C24.1936 40.7681 24.5546 41.1292 25 41.1292C25.4454 41.1292 25.8065 40.7681 25.8065 40.3227V25.8066H40.3226C40.7679 25.8066 41.129 25.4455 41.129 25.0001C41.129 24.5548 40.7679 24.1937 40.3226 24.1937Z" />
        </g>
    </symbol>
</svg>
