<svg width="310" height="310" viewBox="0 0 310 310" fill="none" xmlns="http://www.w3.org/2000/svg">
<g filter="url(#filter0_di)">
<path d="M220 10H90C48.5786 10 15 43.5786 15 85V215C15 256.421 48.5786 290 90 290H220C261.421 290 295 256.421 295 215V85C295 43.5786 261.421 10 220 10Z" fill="#E9F9F6"/>
</g>
<path d="M217.598 115.107C217.287 114.718 216.831 114.473 216.335 114.428L115.24 105.252C115.184 103.861 114.632 102.485 113.572 101.425L102.808 90.6611C101.723 89.5762 100.28 88.9783 98.7451 88.9783C97.2105 88.9783 95.7678 89.5762 94.6829 90.6611C93.5977 91.7463 93 93.1892 93 94.7239C93 96.2586 93.5977 97.7012 94.6829 98.7864L105.447 109.55C106.532 110.635 107.975 111.233 109.509 111.233C110.087 111.233 110.651 111.148 111.189 110.985L126.493 161.663C127.739 165.79 131.472 168.531 135.719 168.531C135.959 168.531 136.202 168.522 136.445 168.504L205.657 163.44C209.286 163.174 212.262 160.362 212.733 156.754L217.985 116.488C218.049 115.994 217.91 115.496 217.598 115.107ZM110.982 106.96C110.588 107.354 110.065 107.571 109.509 107.571C108.953 107.571 108.43 107.354 108.036 106.96L97.2722 96.1965C96.8787 95.8032 96.6621 95.28 96.6621 94.7239C96.6621 94.1677 96.8787 93.6443 97.2722 93.2507C97.6658 92.8574 98.1887 92.6406 98.7451 92.6406C99.3015 92.6406 99.8245 92.8574 100.218 93.2507L110.982 104.015C111.794 104.827 111.794 106.148 110.982 106.96ZM156.056 112.634L156.881 126.03L139.764 125.407L137.063 110.91L156.056 112.634ZM114.369 108.85L133.274 110.566L136.014 125.27L119.142 124.656L114.369 108.85ZM125.499 145.704L120.261 128.361L136.701 128.96L139.762 145.387L125.499 145.704ZM136.177 164.851C133.355 165.057 130.816 163.311 129.999 160.604L126.598 149.343L140.442 149.035L143.291 164.331L136.177 164.851ZM140.452 129.097L157.108 129.703L158.049 144.981L143.472 145.305L140.452 129.097ZM146.966 164.062L144.151 148.953L158.274 148.639L159.17 163.169L146.966 164.062ZM175.774 161.954L162.823 162.902L161.939 148.557L176.139 148.242L175.774 161.954ZM176.236 144.577L161.713 144.899L160.785 129.837L176.613 130.414L176.236 144.577ZM176.711 126.753L160.558 126.164L159.745 112.969L177.036 114.538L176.711 126.753ZM193.389 160.665L179.444 161.686L179.804 148.16L194.422 147.835L193.389 160.665ZM194.717 144.166L179.902 144.495L180.273 130.547L195.768 131.111L194.717 144.166ZM196.061 127.458L180.371 126.886L180.69 114.87L196.956 116.346L196.061 127.458ZM209.101 156.28C208.855 158.173 207.294 159.648 205.39 159.787L197.085 160.395L198.102 147.754L210.249 147.484L209.101 156.28ZM210.728 143.81L198.398 144.084L199.431 131.245L212.306 131.714L210.728 143.81ZM212.781 128.066L199.725 127.591L200.603 116.677L214.107 117.903L212.781 128.066Z" fill="#5B608E"/>
<path d="M200.387 196.839V192.451H204.427C205.438 192.451 206.258 191.631 206.258 190.62C206.258 189.609 205.438 188.789 204.427 188.789H128.166C127.453 188.789 126.819 188.448 126.427 187.853C126.035 187.258 125.971 186.541 126.251 185.885L131.423 173.817C131.822 172.888 131.391 171.811 130.462 171.413C129.532 171.014 128.456 171.445 128.057 172.374L122.885 184.443C122.122 186.223 122.304 188.251 123.37 189.869C124.436 191.486 126.229 192.451 128.166 192.451H130.184V196.839C126.819 197.663 124.313 200.704 124.313 204.32C124.313 208.567 127.768 212.022 132.015 212.022C136.263 212.022 139.718 208.567 139.718 204.32C139.718 200.704 137.212 197.663 133.847 196.839V192.451H196.725V196.839C193.359 197.663 190.853 200.704 190.853 204.32C190.853 208.567 194.309 212.022 198.556 212.022C202.803 212.022 206.258 208.567 206.258 204.32C206.258 200.704 203.752 197.663 200.387 196.839ZM136.056 204.319C136.056 206.547 134.243 208.36 132.015 208.36C129.788 208.36 127.975 206.547 127.975 204.319C127.975 202.092 129.788 200.279 132.015 200.279C134.243 200.279 136.056 202.092 136.056 204.319ZM198.556 208.36C196.328 208.36 194.516 206.547 194.516 204.319C194.516 202.092 196.328 200.279 198.556 200.279C200.783 200.279 202.596 202.092 202.596 204.319C202.596 206.547 200.783 208.36 198.556 208.36Z" fill="#5B608E"/>
<defs>
<filter id="filter0_di" x="0" y="0" width="310" height="310" filterUnits="userSpaceOnUse" color-interpolation-filters="sRGB">
<feFlood flood-opacity="0" result="BackgroundImageFix"/>
<feColorMatrix in="SourceAlpha" type="matrix" values="0 0 0 0 0 0 0 0 0 0 0 0 0 0 0 0 0 0 127 0"/>
<feOffset dy="5"/>
<feGaussianBlur stdDeviation="7.5"/>
<feColorMatrix type="matrix" values="0 0 0 0 0.628125 0 0 0 0 0.640312 0 0 0 0 0.75 0 0 0 1 0"/>
<feBlend mode="normal" in2="BackgroundImageFix" result="effect1_dropShadow"/>
<feBlend mode="normal" in="SourceGraphic" in2="effect1_dropShadow" result="shape"/>
<feColorMatrix in="SourceAlpha" type="matrix" values="0 0 0 0 0 0 0 0 0 0 0 0 0 0 0 0 0 0 127 0" result="hardAlpha"/>
<feOffset dy="5"/>
<feGaussianBlur stdDeviation="5"/>
<feComposite in2="hardAlpha" operator="arithmetic" k2="-1" k3="1"/>
<feColorMatrix type="matrix" values="0 0 0 0 0.451719 0 0 0 0 0.467797 0 0 0 0 0.6125 0 0 0 0.3 0"/>
<feBlend mode="normal" in2="shape" result="effect2_innerShadow"/>
</filter>
</defs>
</svg>
