<svg width="310" height="310" viewBox="0 0 310 310" fill="none" xmlns="http://www.w3.org/2000/svg">
<g filter="url(#filter0_di)">
<path d="M220 10H90C48.5786 10 15 43.5786 15 85V215C15 256.421 48.5786 290 90 290H220C261.421 290 295 256.421 295 215V85C295 43.5786 261.421 10 220 10Z" fill="#E9F9F6"/>
</g>
<path d="M215.559 185.89C195.169 185.89 175.157 194.254 160.654 208.836C159.702 209.793 159.707 211.339 160.662 212.289C161.139 212.763 161.761 212.999 162.385 212.999C163.011 212.999 163.638 212.76 164.115 212.28C177.709 198.612 196.459 190.773 215.559 190.773C216.907 190.773 218 189.68 218 188.331C218 186.984 216.907 185.89 215.559 185.89Z" fill="#5B608E"/>
<path d="M164.648 183.629C163.892 182.511 162.375 182.217 161.258 182.972C150.818 190.024 142.002 198.847 135.051 209.197C134.3 210.316 134.597 211.834 135.717 212.585C136.136 212.865 136.608 213 137.076 213C137.862 213 138.634 212.62 139.105 211.919C145.703 202.094 154.075 193.716 163.992 187.018C165.108 186.264 165.402 184.746 164.648 183.629Z" fill="#5B608E"/>
<path d="M215.559 166.237C204.644 166.237 193.841 168.101 183.449 171.778C182.178 172.228 181.512 173.623 181.963 174.894C182.316 175.896 183.259 176.522 184.264 176.522C184.534 176.522 184.808 176.476 185.078 176.381C194.945 172.889 205.2 171.119 215.559 171.119C216.907 171.119 218 170.026 218 168.678C218 167.329 216.907 166.237 215.559 166.237Z" fill="#5B608E"/>
<path d="M127.98 196.248C144.042 175.306 167.292 160.765 192.948 155.316C192.953 155.315 192.957 155.314 192.961 155.313C200.334 153.748 207.903 152.933 215.559 152.933C216.906 152.933 218 151.839 218 150.491C218 149.143 216.906 148.05 215.559 148.05C208.617 148.05 201.702 148.685 194.904 149.928V144.658C203.728 137.187 208.572 127.399 208.572 116.975C208.572 106.198 203.394 96.0993 193.992 88.5396C193.099 87.8214 191.825 87.8214 190.932 88.5396C181.531 96.0993 176.352 106.198 176.352 116.975C176.352 127.399 181.197 137.187 190.02 144.658V150.926C185.381 151.982 180.81 153.327 176.333 154.948V140.653C176.333 139.982 176.062 139.374 175.623 138.933V138.932L161.952 125.179C161.493 124.718 160.87 124.459 160.22 124.459H132.307C131.657 124.459 131.033 124.718 130.576 125.179L116.904 138.932V138.933C116.465 139.374 116.193 139.982 116.193 140.654V149.977C114.492 149.665 112.783 149.391 111.066 149.156V140.453C117.739 134.713 121.4 127.226 121.4 119.251C121.4 110.918 117.406 103.119 110.155 97.2876C109.261 96.5695 107.989 96.5695 107.095 97.2876C99.8436 103.118 95.8496 110.918 95.8496 119.251C95.8496 127.225 99.5107 134.712 106.184 140.452V148.594C102.624 148.261 99.0396 148.09 95.4414 148.09C94.0929 148.09 93 149.183 93 150.531C93 151.88 94.0929 152.973 95.4414 152.973C114.963 152.973 134.058 158.138 150.891 167.937C146.858 170.678 143.006 173.671 139.359 176.894C125.721 169.945 110.567 166.278 95.4414 166.278C94.0939 166.278 93 167.371 93 168.72C93 170.068 94.0939 171.161 95.4414 171.161C109.204 171.161 122.994 174.362 135.522 180.439C131.811 184.03 128.341 187.871 125.14 191.932C115.643 187.95 105.662 185.932 95.4414 185.932C94.0939 185.932 93 187.025 93 188.373C93 189.722 94.0939 190.814 95.4414 190.814C104.597 190.814 113.548 192.55 122.099 195.968C120.411 198.312 118.808 200.72 117.301 203.192L113.58 209.287C112.877 210.437 113.242 211.94 114.392 212.642C114.79 212.885 115.228 213.001 115.662 213.001C116.484 213.001 117.288 212.584 117.748 211.831L121.468 205.736C123.408 202.557 125.504 199.499 127.739 196.562C127.826 196.465 127.908 196.361 127.98 196.248ZM181.236 116.975C181.236 108.298 185.206 100.078 192.463 93.637C199.719 100.078 203.689 108.298 203.689 116.975C203.689 124.622 200.603 131.915 194.904 137.947V119.251C194.904 117.902 193.811 116.809 192.463 116.809C191.114 116.809 190.021 117.902 190.021 119.251V137.947C184.321 131.915 181.236 124.622 181.236 116.975ZM100.732 119.251C100.732 113.023 103.52 107.109 108.625 102.409C113.73 107.108 116.518 113.023 116.518 119.251C116.518 124.398 114.611 129.332 111.066 133.543V117.298C111.066 115.949 109.973 114.856 108.625 114.856C107.277 114.856 106.184 115.949 106.184 117.298V133.543C102.639 129.332 100.732 124.398 100.732 119.251ZM168.023 138.212H146.994L138.177 129.342H159.205L168.023 138.212ZM132.307 130.363L140.11 138.212H124.505L132.307 130.363ZM121.076 143.094H143.537V158.62C142.405 158.1 141.266 157.596 140.119 157.113V148.913C140.119 147.565 139.026 146.471 137.678 146.471H126.936C125.588 146.471 124.494 147.565 124.494 148.913V151.816C123.359 151.52 122.221 151.24 121.076 150.979V143.094ZM135.236 155.186C133.3 154.473 131.347 153.811 129.377 153.203V151.354H135.236V155.186ZM148.42 161.009V143.094H171.451V156.843C167.269 158.575 163.183 160.553 159.221 162.777C157.955 163.488 156.704 164.226 155.467 164.983C153.159 163.574 150.809 162.248 148.42 161.009Z" fill="#5B608E"/>
<path d="M192.463 112.414C193.104 112.414 193.735 112.153 194.189 111.698C194.643 111.244 194.904 110.614 194.904 109.973C194.904 109.33 194.644 108.7 194.189 108.247C193.735 107.792 193.104 107.531 192.463 107.531C191.821 107.531 191.19 107.792 190.737 108.247C190.282 108.7 190.021 109.33 190.021 109.973C190.021 110.614 190.282 111.244 190.737 111.698C191.19 112.152 191.821 112.414 192.463 112.414Z" fill="#5B608E"/>
<path d="M171.271 177.177C170.818 177.631 170.556 178.261 170.556 178.902C170.556 179.547 170.817 180.175 171.271 180.628C171.726 181.083 172.355 181.344 172.997 181.344C173.64 181.344 174.269 181.083 174.723 180.628C175.177 180.175 175.438 179.547 175.438 178.902C175.438 178.261 175.177 177.631 174.723 177.177C174.269 176.722 173.64 176.461 172.997 176.461C172.355 176.461 171.726 176.722 171.271 177.177Z" fill="#5B608E"/>
<defs>
<filter id="filter0_di" x="0" y="0" width="310" height="310" filterUnits="userSpaceOnUse" color-interpolation-filters="sRGB">
<feFlood flood-opacity="0" result="BackgroundImageFix"/>
<feColorMatrix in="SourceAlpha" type="matrix" values="0 0 0 0 0 0 0 0 0 0 0 0 0 0 0 0 0 0 127 0"/>
<feOffset dy="5"/>
<feGaussianBlur stdDeviation="7.5"/>
<feColorMatrix type="matrix" values="0 0 0 0 0.628125 0 0 0 0 0.640312 0 0 0 0 0.75 0 0 0 1 0"/>
<feBlend mode="normal" in2="BackgroundImageFix" result="effect1_dropShadow"/>
<feBlend mode="normal" in="SourceGraphic" in2="effect1_dropShadow" result="shape"/>
<feColorMatrix in="SourceAlpha" type="matrix" values="0 0 0 0 0 0 0 0 0 0 0 0 0 0 0 0 0 0 127 0" result="hardAlpha"/>
<feOffset dy="5"/>
<feGaussianBlur stdDeviation="5"/>
<feComposite in2="hardAlpha" operator="arithmetic" k2="-1" k3="1"/>
<feColorMatrix type="matrix" values="0 0 0 0 0.451719 0 0 0 0 0.467797 0 0 0 0 0.6125 0 0 0 0.3 0"/>
<feBlend mode="normal" in2="shape" result="effect2_innerShadow"/>
</filter>
</defs>
</svg>
