<svg width="310" height="310" viewBox="0 0 310 310" fill="none" xmlns="http://www.w3.org/2000/svg">
<g filter="url(#filter0_di)">
<path d="M220 10H90C48.5786 10 15 43.5786 15 85V215C15 256.421 48.5786 290 90 290H220C261.421 290 295 256.421 295 215V85C295 43.5786 261.421 10 220 10Z" fill="#E9F9F6"/>
</g>
<path d="M199.694 106.306C187.89 94.5012 172.194 88 155.5 88C138.806 88 123.11 94.5012 111.306 106.306C99.501 118.11 93 133.806 93 150.5C93 167.194 99.501 182.89 111.306 194.694C123.11 206.499 138.806 213 155.5 213C172.194 213 187.89 206.499 199.694 194.694C211.499 182.89 218 167.194 218 150.5C218 133.806 211.499 118.11 199.694 106.306ZM155.5 205.56C125.14 205.56 100.44 180.86 100.44 150.5C100.44 120.14 125.14 95.4404 155.5 95.4404C185.86 95.4404 210.56 120.14 210.56 150.5C210.56 180.86 185.86 205.56 155.5 205.56Z" fill="#5B608E"/>
<path d="M141.98 133.995C135.888 127.902 125.975 127.903 119.883 133.995C118.43 135.448 118.43 137.803 119.883 139.256C121.336 140.709 123.692 140.709 125.145 139.256C128.336 136.065 133.528 136.065 136.719 139.256C137.446 139.983 138.398 140.346 139.35 140.346C140.302 140.346 141.254 139.983 141.98 139.256C143.433 137.803 143.433 135.448 141.98 133.995Z" fill="#5B608E"/>
<path d="M191.116 133.995C185.024 127.903 175.111 127.902 169.019 133.995C167.566 135.448 167.566 137.803 169.019 139.256C170.472 140.709 172.828 140.709 174.281 139.256C177.472 136.065 182.664 136.065 185.855 139.256C186.582 139.983 187.534 140.346 188.486 140.346C189.438 140.346 190.39 139.983 191.116 139.256C192.569 137.803 192.569 135.448 191.116 133.995Z" fill="#5B608E"/>
<path d="M188.486 153.229H122.514C120.459 153.229 118.794 154.894 118.794 156.949C118.794 177.188 135.26 193.655 155.5 193.655C175.74 193.655 192.206 177.188 192.206 156.949C192.206 154.894 190.541 153.229 188.486 153.229ZM155.5 186.215C140.623 186.215 128.302 175.057 126.469 160.669H184.531C182.698 175.057 170.377 186.215 155.5 186.215Z" fill="#5B608E"/>
<defs>
<filter id="filter0_di" x="0" y="0" width="310" height="310" filterUnits="userSpaceOnUse" color-interpolation-filters="sRGB">
<feFlood flood-opacity="0" result="BackgroundImageFix"/>
<feColorMatrix in="SourceAlpha" type="matrix" values="0 0 0 0 0 0 0 0 0 0 0 0 0 0 0 0 0 0 127 0"/>
<feOffset dy="5"/>
<feGaussianBlur stdDeviation="7.5"/>
<feColorMatrix type="matrix" values="0 0 0 0 0.628125 0 0 0 0 0.640312 0 0 0 0 0.75 0 0 0 1 0"/>
<feBlend mode="normal" in2="BackgroundImageFix" result="effect1_dropShadow"/>
<feBlend mode="normal" in="SourceGraphic" in2="effect1_dropShadow" result="shape"/>
<feColorMatrix in="SourceAlpha" type="matrix" values="0 0 0 0 0 0 0 0 0 0 0 0 0 0 0 0 0 0 127 0" result="hardAlpha"/>
<feOffset dy="5"/>
<feGaussianBlur stdDeviation="5"/>
<feComposite in2="hardAlpha" operator="arithmetic" k2="-1" k3="1"/>
<feColorMatrix type="matrix" values="0 0 0 0 0.451719 0 0 0 0 0.467797 0 0 0 0 0.6125 0 0 0 0.3 0"/>
<feBlend mode="normal" in2="shape" result="effect2_innerShadow"/>
</filter>
</defs>
</svg>
