<svg width="310" height="310" viewBox="0 0 310 310" fill="none" xmlns="http://www.w3.org/2000/svg">
<g filter="url(#filter0_di)">
<path d="M220 10H90C48.5786 10 15 43.5786 15 85V215C15 256.421 48.5786 290 90 290H220C261.421 290 295 256.421 295 215V85C295 43.5786 261.421 10 220 10Z" fill="#E9F9F6"/>
</g>
<path d="M200.422 160.266H196.516V164.172H200.422V160.266Z" fill="#5B608E"/>
<path d="M200.422 175.891H196.516V179.797H200.422V175.891Z" fill="#5B608E"/>
<path d="M200.422 191.516H196.516V195.422H200.422V191.516Z" fill="#5B608E"/>
<path d="M212.141 144.641H203.385C202.389 140.08 200.246 135.855 197.117 132.34C195.697 130.744 194.039 129.457 192.264 128.531C195.824 126.061 198.164 121.949 198.164 117.297V115.344H188.398C183.422 115.344 179.072 118.025 176.68 122.01V117.297C176.68 112.988 180.184 109.484 184.492 109.484V105.578C178.029 105.578 172.773 110.834 172.773 117.297V128.135C166.994 126.041 160.496 127.607 156.344 132.225C155.842 132.783 155.371 133.363 154.92 133.957L155.09 133.143C155.361 131.834 155.5 130.492 155.5 129.016C155.5 123.529 153.219 118.572 149.564 115.021L156.412 104.943C156.559 104.727 156.691 104.498 156.814 104.254C158.305 101.271 157.092 97.6309 154.109 96.1406L153.621 95.8965C152.178 95.1738 150.539 95.0566 149.006 95.5684C147.473 96.0801 146.23 97.1563 145.492 98.6289C145.387 98.8379 145.295 99.0547 145.217 99.2715L141.234 110.225C140.965 110.148 140.691 110.078 140.418 110.014L141.797 96.207C141.818 96.0156 141.828 95.8203 141.828 95.627C141.828 92.498 139.281 89.9531 136.154 89.9531H135.785C132.656 89.9531 130.109 92.498 130.109 95.627C130.109 95.8223 130.119 96.0156 130.139 96.1934L131.52 110.018C131.244 110.082 130.973 110.152 130.703 110.229L126.723 99.2773C126.643 99.0566 126.551 98.8398 126.432 98.6016C125.709 97.1563 124.467 96.0801 122.934 95.5684C121.402 95.0566 119.764 95.1738 118.318 95.8965L117.83 96.1406C114.85 97.6328 113.637 101.271 115.129 104.262C115.25 104.498 115.381 104.725 115.531 104.947L122.383 115.031C118.723 118.602 116.438 123.596 116.438 129.156C116.438 130.492 116.576 131.834 116.85 133.141L119.246 144.641H116.438C114.283 144.641 112.531 146.393 112.531 148.547V148.703C111.891 148.611 111.242 148.547 110.578 148.547H100.812V150.5C100.812 155.152 103.152 159.264 106.713 161.734C104.936 162.66 103.277 163.947 101.859 165.545C97.4062 170.549 94.9531 176.998 94.9531 183.703C94.9531 191.207 97.9316 198.205 103.34 203.41C108.484 208.359 115.176 211.049 122.285 211.049C122.65 211.049 123.014 211.041 123.381 211.027C130.332 210.76 136.654 207.824 141.355 203.236H198.469C203.854 203.236 208.234 198.855 208.234 193.471V156.359H212.141C214.295 156.359 216.047 154.607 216.047 152.453V148.547C216.047 146.393 214.295 144.641 212.141 144.641ZM188.398 119.25H194.061C193.152 123.701 189.209 127.063 184.492 127.063H178.83C179.736 122.611 183.682 119.25 188.398 119.25ZM159.246 134.836C162.428 131.301 167.691 130.135 172.047 131.998C172.281 132.098 172.529 132.176 172.773 132.26V136.43C170.834 135.707 168.992 134.186 168.293 133.49L165.533 136.256C165.99 136.715 170.143 140.734 174.727 140.734C179.311 140.734 183.463 136.715 183.92 136.256L181.16 133.49C180.461 134.184 178.619 135.705 176.68 136.43V130.969H184.492C185.154 130.969 185.799 130.906 186.436 130.814C189.172 131.01 192.066 132.541 194.199 134.936C196.689 137.732 198.441 141.055 199.365 144.641H153.994C154.928 141.012 156.711 137.654 159.246 134.836ZM148.889 100.604C148.916 100.529 148.945 100.457 149.002 100.348C149.258 99.8359 149.695 99.4551 150.24 99.2734C150.787 99.0918 151.363 99.1348 151.875 99.3906L152.363 99.6348C153.42 100.162 153.85 101.451 153.324 102.5C153.281 102.588 153.229 102.676 153.178 102.752L146.494 112.588C145.969 112.25 145.428 111.938 144.871 111.65L148.889 100.604ZM134.016 95.627C134.016 94.6523 134.809 93.8594 135.783 93.8594H136.152C137.127 93.8594 137.92 94.6523 137.91 95.8027L136.539 109.514C136.35 109.508 136.162 109.484 135.969 109.484C135.775 109.484 135.588 109.508 135.396 109.514L134.016 95.627ZM118.764 102.758C118.709 102.676 118.656 102.59 118.617 102.508C118.088 101.451 118.518 100.162 119.574 99.6348L120.062 99.3906C120.572 99.1367 121.152 99.0918 121.697 99.2734C122.24 99.4551 122.68 99.8359 122.955 100.385C122.992 100.455 123.021 100.527 123.051 100.605L127.068 111.654C126.512 111.941 125.971 112.254 125.447 112.592L118.764 102.758ZM135.969 113.391C144.584 113.391 151.594 120.4 151.594 129.156C151.594 130.225 151.482 131.297 151.266 132.344L148.703 144.641H126.949C128.322 143.439 130.098 142.688 132.062 142.688V138.781C128.371 138.781 125.078 140.5 122.928 143.176L120.67 132.344C120.455 131.297 120.344 130.225 120.344 129.016C120.344 120.4 127.354 113.391 135.969 113.391ZM116.438 148.547H120.52C120.412 149.184 120.344 149.834 120.344 150.5V152.67C119.223 151.523 117.9 150.584 116.438 149.887V148.547ZM110.578 152.453C115.295 152.453 119.24 155.814 120.146 160.266H114.484C109.768 160.266 105.822 156.904 104.916 152.453H110.578ZM123.23 207.123C116.75 207.355 110.684 205.053 106.049 200.594C101.414 196.133 98.8594 190.135 98.8594 183.703C98.8594 177.955 100.961 172.43 104.775 168.139C106.908 165.742 109.803 164.211 112.541 164.018C113.178 164.109 113.822 164.172 114.484 164.172H120.344V169.633C118.404 168.91 116.562 167.389 115.863 166.693L113.104 169.459C113.561 169.918 117.713 173.938 122.297 173.938C126.881 173.938 131.033 169.918 131.49 169.459L128.73 166.693C128.031 167.387 126.189 168.908 124.25 169.633V165.955C125.186 165.805 126.092 165.561 126.93 165.201C131.283 163.334 136.549 164.506 139.729 168.039C143.859 172.631 145.984 178.572 145.711 184.768C145.178 196.838 135.301 206.656 123.23 207.123ZM149.609 183.703C149.609 179.598 148.732 175.611 147.008 171.984H204.328V183.703H149.609ZM198.469 199.328H144.686C147.092 195.902 148.736 191.912 149.359 187.609H204.328V193.469C204.328 196.699 201.699 199.328 198.469 199.328ZM212.141 152.453H204.328V168.078H144.709C144.068 167.162 143.391 166.27 142.633 165.428C138.283 160.594 131.352 159.062 125.395 161.611C125.037 161.764 124.645 161.863 124.252 161.961V156.359H200.424V152.453H124.25V150.5C124.25 149.822 124.363 149.176 124.527 148.547H212.141V152.453Z" fill="#5B608E"/>
<path d="M106.672 183.703H102.766C102.766 194.473 111.527 203.234 122.297 203.234V199.328C113.682 199.328 106.672 192.318 106.672 183.703Z" fill="#5B608E"/>
<path d="M145.734 121.203H141.828V125.109H145.734V121.203Z" fill="#5B608E"/>
<path d="M145.734 129.016H141.828V132.922H145.734V129.016Z" fill="#5B608E"/>
<path d="M145.734 136.828H141.828V140.734H145.734V136.828Z" fill="#5B608E"/>
<defs>
<filter id="filter0_di" x="0" y="0" width="310" height="310" filterUnits="userSpaceOnUse" color-interpolation-filters="sRGB">
<feFlood flood-opacity="0" result="BackgroundImageFix"/>
<feColorMatrix in="SourceAlpha" type="matrix" values="0 0 0 0 0 0 0 0 0 0 0 0 0 0 0 0 0 0 127 0"/>
<feOffset dy="5"/>
<feGaussianBlur stdDeviation="7.5"/>
<feColorMatrix type="matrix" values="0 0 0 0 0.628125 0 0 0 0 0.640312 0 0 0 0 0.75 0 0 0 1 0"/>
<feBlend mode="normal" in2="BackgroundImageFix" result="effect1_dropShadow"/>
<feBlend mode="normal" in="SourceGraphic" in2="effect1_dropShadow" result="shape"/>
<feColorMatrix in="SourceAlpha" type="matrix" values="0 0 0 0 0 0 0 0 0 0 0 0 0 0 0 0 0 0 127 0" result="hardAlpha"/>
<feOffset dy="5"/>
<feGaussianBlur stdDeviation="5"/>
<feComposite in2="hardAlpha" operator="arithmetic" k2="-1" k3="1"/>
<feColorMatrix type="matrix" values="0 0 0 0 0.451719 0 0 0 0 0.467797 0 0 0 0 0.6125 0 0 0 0.3 0"/>
<feBlend mode="normal" in2="shape" result="effect2_innerShadow"/>
</filter>
</defs>
</svg>
