<svg width="310" height="310" viewBox="0 0 310 310" fill="none" xmlns="http://www.w3.org/2000/svg">
<g filter="url(#filter0_di)">
<path d="M220 10H90C48.5786 10 15 43.5786 15 85V215C15 256.421 48.5786 290 90 290H220C261.421 290 295 256.421 295 215V85C295 43.5786 261.421 10 220 10Z" fill="#E9F9F6"/>
</g>
<path d="M122.167 170.292C115.273 170.292 109.667 175.898 109.667 182.792C109.667 189.686 115.273 195.292 122.167 195.292C129.061 195.292 134.667 189.686 134.667 182.792C134.667 175.898 129.06 170.292 122.167 170.292ZM122.167 191.125C117.571 191.125 113.833 187.388 113.833 182.792C113.833 178.196 117.571 174.459 122.167 174.459C126.762 174.459 130.5 178.196 130.5 182.792C130.5 187.388 126.762 191.125 122.167 191.125Z" fill="#5B608E"/>
<path d="M193 170.292C186.106 170.292 180.5 175.898 180.5 182.792C180.5 189.686 186.106 195.292 193 195.292C199.894 195.292 205.5 189.686 205.5 182.792C205.5 175.898 199.894 170.292 193 170.292ZM193 191.125C188.404 191.125 184.667 187.388 184.667 182.792C184.667 178.196 188.404 174.459 193 174.459C197.596 174.459 201.333 178.196 201.333 182.792C201.333 187.388 197.596 191.125 193 191.125Z" fill="#5B608E"/>
<path d="M217.669 158.748L198.919 129.581C198.535 128.985 197.875 128.625 197.166 128.625H174.25C173.098 128.625 172.167 129.558 172.167 130.708V182.791C172.167 183.944 173.098 184.875 174.25 184.875H182.583V180.708H176.333V132.792H196.029L213.833 160.488V180.708H203.416V184.875H215.916C217.069 184.875 218 183.944 218 182.792V159.875C218 159.477 217.885 159.083 217.669 158.748Z" fill="#5B608E"/>
<path d="M184.667 155.708V141.125H201.334V136.958H182.584C181.431 136.958 180.5 137.891 180.5 139.041V157.791C180.5 158.943 181.431 159.875 182.584 159.875H213.834V155.708H184.667Z" fill="#5B608E"/>
<path d="M174.25 114.042H95.0833C93.9333 114.042 93 114.975 93 116.125V182.792C93 183.944 93.9333 184.875 95.0833 184.875H111.75V180.708H97.1667V118.208H172.167V180.708H132.583V184.875H174.25C175.402 184.875 176.333 183.944 176.333 182.792V116.125C176.333 114.975 175.402 114.042 174.25 114.042Z" fill="#5B608E"/>
<path d="M107.583 172.375H95.0833V176.542H107.583V172.375Z" fill="#5B608E"/>
<path d="M172.167 172.375H136.75V176.542H172.167V172.375Z" fill="#5B608E"/>
<path d="M215.917 172.375H207.583V176.542H215.917V172.375Z" fill="#5B608E"/>
<path d="M174.25 122.375H101.333V126.542H174.25V122.375Z" fill="#5B608E"/>
<path d="M124.25 180.708H120.083V184.875H124.25V180.708Z" fill="#5B608E"/>
<path d="M195.083 180.708H190.917V184.875H195.083V180.708Z" fill="#5B608E"/>
<path d="M130.5 105.708H101.333V109.875H130.5V105.708Z" fill="#5B608E"/>
<path d="M97.1667 105.708H93V109.875H97.1667V105.708Z" fill="#5B608E"/>
<defs>
<filter id="filter0_di" x="0" y="0" width="310" height="310" filterUnits="userSpaceOnUse" color-interpolation-filters="sRGB">
<feFlood flood-opacity="0" result="BackgroundImageFix"/>
<feColorMatrix in="SourceAlpha" type="matrix" values="0 0 0 0 0 0 0 0 0 0 0 0 0 0 0 0 0 0 127 0"/>
<feOffset dy="5"/>
<feGaussianBlur stdDeviation="7.5"/>
<feColorMatrix type="matrix" values="0 0 0 0 0.628125 0 0 0 0 0.640312 0 0 0 0 0.75 0 0 0 1 0"/>
<feBlend mode="normal" in2="BackgroundImageFix" result="effect1_dropShadow"/>
<feBlend mode="normal" in="SourceGraphic" in2="effect1_dropShadow" result="shape"/>
<feColorMatrix in="SourceAlpha" type="matrix" values="0 0 0 0 0 0 0 0 0 0 0 0 0 0 0 0 0 0 127 0" result="hardAlpha"/>
<feOffset dy="5"/>
<feGaussianBlur stdDeviation="5"/>
<feComposite in2="hardAlpha" operator="arithmetic" k2="-1" k3="1"/>
<feColorMatrix type="matrix" values="0 0 0 0 0.451719 0 0 0 0 0.467797 0 0 0 0 0.6125 0 0 0 0.3 0"/>
<feBlend mode="normal" in2="shape" result="effect2_innerShadow"/>
</filter>
</defs>
</svg>
