<svg width="50" height="50" viewBox="0 0 50 50" fill="none" xmlns="http://www.w3.org/2000/svg">
<g clip-path="url(#clip0)">
<path d="M17.566 48.8761C19.964 49.6218 22.4651 50 25 50C31.6777 50 37.9558 47.3995 42.6776 42.6777C47.3996 37.9558 50 31.6777 50 25C50 19.5592 48.2824 14.3867 45.033 10.0417C41.8915 5.84101 37.4171 2.67412 32.4339 1.12422C32.3612 1.10156 32.2879 1.09092 32.2157 1.09092C31.9028 1.09092 31.613 1.29268 31.5152 1.60703C31.3948 1.99385 31.6109 2.40527 31.9979 2.52559C36.688 3.98438 40.8999 6.96582 43.8575 10.9207C46.9158 15.01 48.5322 19.8784 48.5322 25C48.5322 31.2857 46.0844 37.1952 41.6398 41.6398C37.1951 46.0845 31.2857 48.5323 25 48.5323C22.6132 48.5323 20.2586 48.1765 18.002 47.4745C17.6145 47.3542 17.2036 47.5703 17.0833 47.9573C16.9629 48.3443 17.179 48.7557 17.566 48.8761Z" fill="#424651"/>
<path d="M4.11465 38.7454C6.73829 42.7241 10.4159 45.8582 14.7501 47.8088C15.1194 47.9752 15.5542 47.8103 15.7204 47.4407C15.8868 47.0711 15.7221 46.6367 15.3525 46.4703C11.2724 44.6341 7.81016 41.6835 5.33995 37.9374C2.80674 34.0958 1.46768 29.6222 1.46768 24.9999C1.46768 18.7143 3.91553 12.8047 8.36007 8.36016C12.8048 3.91543 18.7143 1.46767 25 1.46767C26.5021 1.46767 28.0049 1.61006 29.467 1.89102C29.8659 1.96787 30.2497 1.70684 30.3261 1.30879C30.4025 0.910744 30.1419 0.526077 29.7439 0.449707C28.1907 0.151173 26.5947 0 25 0C18.3223 0 12.0443 2.60049 7.32227 7.32236C2.6004 12.0441 1.90735e-06 18.3223 1.90735e-06 25C1.90735e-06 29.9102 1.42276 34.6634 4.11465 38.7454Z" fill="#424651"/>
<path d="M17.9867 25.5065L28.2773 34.9537C28.5761 35.2278 29.0402 35.208 29.3142 34.9094C29.5883 34.6107 29.5685 34.1466 29.2699 33.8725L19.5682 24.9658L29.1958 16.1273C29.4941 15.8533 29.5141 15.3892 29.2399 15.0905C29.0953 14.9328 28.8976 14.853 28.6992 14.853C28.5219 14.853 28.344 14.917 28.2031 15.0463L17.9867 24.4254C17.8353 24.5644 17.7492 24.7605 17.7492 24.9659C17.7492 25.1715 17.8354 25.3676 17.9867 25.5065Z" fill="#424651"/>
</g>
<defs>
<clipPath id="clip0">
<rect width="50" height="50" fill="white" transform="translate(50 50) rotate(-180)"/>
</clipPath>
</defs>
</svg>
